<?xml version="1.0" encoding="UTF-8"?>
<svg version="1.1" xmlns="http://www.w3.org/2000/svg" width="452" height="167">
<path d="M0 0 C149.16 0 298.32 0 452 0 C452 55.11 452 110.22 452 167 C302.84 167 153.68 167 0 167 C0 111.89 0 56.78 0 0 Z " fill="#FDFDFE" transform="translate(0,0)"/>
<path d="M0 0 C1.216875 0.495 2.43375 0.99 3.6875 1.5 C6.92486738 2.72479441 9.50099357 3.32803185 13 3 C13 3.99 13 4.98 13 6 C17.455 5.505 17.455 5.505 22 5 C22 5.66 22 6.32 22 7 C23.98 7 25.96 7 28 7 C28 6.34 28 5.68 28 5 C30.31 5 32.62 5 35 5 C35.33 4.01 35.66 3.02 36 2 C38.31 2.66 40.62 3.32 43 4 C43.495 5.98 43.495 5.98 44 8 C41.525 7.01 41.525 7.01 39 6 C41.02633069 10.32371893 41.02633069 10.32371893 44 14 C43.34 14 42.68 14 42 14 C42.66 15.65 43.32 17.3 44 19 C44.66 19 45.32 19 46 19 C46.495 17.515 46.495 17.515 47 16 C47.12375 17.11375 47.2475 18.2275 47.375 19.375 C47.6465813 23.03103677 47.6465813 23.03103677 50 25 C50.99 20.38 51.98 15.76 53 11 C52.34 10.67 51.68 10.34 51 10 C51.99 10 52.98 10 54 10 C54.33 7.69 54.66 5.38 55 3 C55.66 3.66 56.32 4.32 57 5 C56.34 6.98 55.68 8.96 55 11 C56.32 11 57.64 11 59 11 C59 11.66 59 12.32 59 13 C56.525 12.505 56.525 12.505 54 12 C54 13.32 54 14.64 54 16 C55.98 16 57.96 16 60 16 C60 16.33 60 16.66 60 17 C57.69 17 55.38 17 53 17 C53.13019531 17.59167969 53.26039062 18.18335937 53.39453125 18.79296875 C53.82691773 21.27009877 54.1137558 23.48473292 54 26 C51.625 29 51.625 29 49 31 C47.03177114 32.96822886 47.33751619 36.34808709 47 39 C46.67 38.01 46.34 37.02 46 36 C45.34 36 44.68 36 44 36 C43.31292445 38.49064888 43 40.37886292 43 43 C42.34 43 41.68 43 41 43 C40.34 44.98 39.68 46.96 39 49 C41.475 48.505 41.475 48.505 44 48 C43.67 48.99 43.34 49.98 43 51 C41.02 51.495 41.02 51.495 39 52 C38.34 54.97 37.68 57.94 37 61 C36.67 61 36.34 61 36 61 C36 58.69 36 56.38 36 54 C34.02 54.495 34.02 54.495 32 55 C33.32 53.68 34.64 52.36 36 51 C34.95562735 49.72620721 34.95562735 49.72620721 32.625 49.9375 C31.75875 49.958125 30.8925 49.97875 30 50 C28 50 26 50 24 50 C23.67 50.66 23.34 51.32 23 52 C22.01 51.34 21.02 50.68 20 50 C17.37468476 49.83286431 17.37468476 49.83286431 15 50 C14.67 51.32 14.34 52.64 14 54 C13.67 53.34 13.34 52.68 13 52 C10.47266765 51.34444881 10.47266765 51.34444881 8 51 C7.505 49.515 7.505 49.515 7 48 C8.32 48.33 9.64 48.66 11 49 C10.67 47.02 10.34 45.04 10 43 C8.68 42.67 7.36 42.34 6 42 C6.99 41.505 6.99 41.505 8 41 C7.34 39.68 6.68 38.36 6 37 C5.01 37.495 5.01 37.495 4 38 C3.7525 36.88625 3.505 35.7725 3.25 34.625 C2.44029373 30.95912285 2.44029373 30.95912285 0.0625 29.9375 C-0.618125 29.628125 -1.29875 29.31875 -2 29 C-3.75 25.875 -3.75 25.875 -5 23 C-4.34 23 -3.68 23 -3 23 C-2.34 22.01 -1.68 21.02 -1 20 C-1 21.98 -1 23.96 -1 26 C1.78388975 24.29374499 2.85384206 23.52373261 3.75 20.3125 C3.8325 19.549375 3.915 18.78625 4 18 C4.66 18 5.32 18 6 18 C8.2773501 15.18490007 8.2773501 15.18490007 8 12 C8.66 12 9.32 12 10 12 C10 10.35 10 8.7 10 7 C8.35 7.33 6.7 7.66 5 8 C5.33 7.01 5.66 6.02 6 5 C4.02 4.01 2.04 3.02 0 2 C0 1.34 0 0.68 0 0 Z " fill="#FDFDFD" transform="translate(53,46)"/>
<path d="M0 0 C4.95 0.99 4.95 0.99 10 2 C9.67 2.99 9.34 3.98 9 5 C8.34 5 7.68 5 7 5 C7 5.66 7 6.32 7 7 C7.9590625 6.7215625 7.9590625 6.7215625 8.9375 6.4375 C9.618125 6.293125 10.29875 6.14875 11 6 C12.97299514 7.97299514 12.18499989 11.68488518 12.1875 14.375 C12.19974609 15.06078125 12.21199219 15.7465625 12.22460938 16.453125 C12.23552331 20.19296797 12.1266842 21.8099737 10 25 C8.515 24.505 8.515 24.505 7 24 C7 24.66 7 25.32 7 26 C8.485 26.495 8.485 26.495 10 27 C8.78184562 31.68520915 7.30440013 35.70543612 5 40 C4.34 40 3.68 40 3 40 C2.67 41.32 2.34 42.64 2 44 C1.34 44 0.68 44 0 44 C0 44.66 0 45.32 0 46 C-5.93648906 50.64828167 -11.38352131 54 -19 54 C-19 54.66 -19 55.32 -19 56 C-22.15506142 56.93619813 -24.96586502 57.1057123 -28.25 57.0625 C-29.14203125 57.05347656 -30.0340625 57.04445312 -30.953125 57.03515625 C-31.62859375 57.02355469 -32.3040625 57.01195312 -33 57 C-33 56.01 -33 55.02 -33 54 C-33.99 54.66 -34.98 55.32 -36 56 C-36.66 56 -37.32 56 -38 56 C-37.67 54.35 -37.34 52.7 -37 51 C-37.66 51 -38.32 51 -39 51 C-39.33 52.32 -39.66 53.64 -40 55 C-44.40908655 53.69166571 -48.00349255 51.97608606 -51.875 49.5 C-53.32519531 48.58734375 -53.32519531 48.58734375 -54.8046875 47.65625 C-55.52914062 47.1096875 -56.25359375 46.563125 -57 46 C-57 45.34 -57 44.68 -57 44 C-57.66 44 -58.32 44 -59 44 C-58.38461538 36.49230769 -58.38461538 36.49230769 -56.4375 34 C-55.7259375 33.505 -55.7259375 33.505 -55 33 C-58.03525486 30.97649676 -59.19426202 30.67875982 -62.6875 30.375 C-63.49574219 30.30023438 -64.30398437 30.22546875 -65.13671875 30.1484375 C-65.75160156 30.09945312 -66.36648437 30.05046875 -67 30 C-67 29.01 -67 28.02 -67 27 C-66.01 26.67 -65.02 26.34 -64 26 C-64 25.34 -64 24.68 -64 24 C-62.03852126 22.61061923 -60.03833424 21.2739589 -58 20 C-60.29776136 21.10632954 -62.45328831 22.28060705 -64.625 23.625 C-67 25 -67 25 -69 25 C-69 19.06 -69 13.12 -69 7 C-65.45461793 7 -64.29774912 7.8268882 -61.375 9.75 C-60.57835937 10.26046875 -59.78171875 10.7709375 -58.9609375 11.296875 C-56.78648883 13.18543998 -56.35417831 14.19099964 -56 17 C-55.401875 17.04125 -54.80375 17.0825 -54.1875 17.125 C-50.89444045 18.44222382 -50.44117331 20.86701455 -49 24 C-47.43897509 25.81554159 -47.43897509 25.81554159 -46 27 C-46.33 27.99 -46.66 28.98 -47 30 C-46.01 30.33 -45.02 30.66 -44 31 C-43.67 32.98 -43.34 34.96 -43 37 C-43.99 37 -44.98 37 -46 37 C-46 37.66 -46 38.32 -46 39 C-44.34385343 39.38218767 -42.67542976 39.71395102 -41 40 C-39.84188612 38.94729537 -39.84188612 38.94729537 -39 37 C-35.95613276 36.91773332 -33.92824652 37.02391783 -31 38 C-31 37.67 -31 37.34 -31 37 C-26.20351921 37 -21.76005097 37.29480726 -17 38 C-17.99 39.32 -18.98 40.64 -20 42 C-19.01 42 -18.02 42 -17 42 C-16.34 41.01 -15.68 40.02 -15 39 C-13.68 39 -12.36 39 -11 39 C-11 38.34 -11 37.68 -11 37 C-12.32 37 -13.64 37 -15 37 C-14.39816251 34.97954558 -13.72693904 32.97888961 -13 31 C-12.34 30.67 -11.68 30.34 -11 30 C-11.495 29.01 -11.495 29.01 -12 28 C-11.0625 25.875 -11.0625 25.875 -10 24 C-9.34 24 -8.68 24 -8 24 C-7.7525 23.278125 -7.505 22.55625 -7.25 21.8125 C-5.87730408 18.72393418 -4.27646704 16.48988582 -2 14 C-1.34 14 -0.68 14 0 14 C-0.495 13.01 -0.495 13.01 -1 12 C-1.16217149 7.70245555 -0.8514137 4.25706852 0 0 Z M-57 24 C-56 26 -56 26 -56 26 Z " fill="#FCF3E4" transform="translate(107,58)"/>
<path d="M0 0 C3.3 0 6.6 0 10 0 C10 0.66 10 1.32 10 2 C11.32 1.67 12.64 1.34 14 1 C14 2.32 14 3.64 14 5 C14.66 5 15.32 5 16 5 C16 4.01 16 3.02 16 2 C22.12892523 2.32257501 27.19327716 5.36101209 32 9 C32.495 10.485 32.495 10.485 33 12 C32.34 12.33 31.68 12.66 31 13 C31.99 13 32.98 13 34 13 C34.66 13 35.32 13 36 13 C35.69217504 14.64671412 35.37860766 16.29235576 35.0625 17.9375 C34.88847656 18.85402344 34.71445313 19.77054688 34.53515625 20.71484375 C34 23 34 23 33 24 C32.73415178 25.9273996 32.4737453 27.85587464 32.25390625 29.7890625 C31.90014905 32.86947134 31.44742559 35.93193878 31 39 C27.18461538 36.53846154 27.18461538 36.53846154 26.25 33.8125 C26.1675 33.214375 26.085 32.61625 26 32 C25.34 32 24.68 32 24 32 C23.731875 31.278125 23.46375 30.55625 23.1875 29.8125 C22.06767588 26.95860702 22.06767588 26.95860702 20.375 24.375 C19 22 19 22 19 19 C20.32 19.33 21.64 19.66 23 20 C23 19.01 23 18.02 23 17 C22.21625 16.855625 21.4325 16.71125 20.625 16.5625 C18 16 18 16 16 15 C16.495 16.485 16.495 16.485 17 18 C10.25 19.125 10.25 19.125 8 18 C8 18.66 8 19.32 8 20 C6.02 20 4.04 20 2 20 C2 19.34 2 18.68 2 18 C1.34 18.33 0.68 18.66 0 19 C-2.3329866 19.04022391 -4.66706666 19.04320247 -7 19 C-7.33 18.34 -7.66 17.68 -8 17 C-9.546875 16.814375 -9.546875 16.814375 -11.125 16.625 C-15.67578329 15.8910027 -18.14202237 14.44076136 -22 12 C-20.51266474 7.95163184 -18.30586407 6.71862174 -14.5625 4.75 C-13.59441406 4.22921875 -12.62632813 3.7084375 -11.62890625 3.171875 C-9 2 -9 2 -6 2 C-5.67 2.99 -5.34 3.98 -5 5 C-4.34 5 -3.68 5 -3 5 C-3.33 3.68 -3.66 2.36 -4 1 C-3.01 1 -2.02 1 -1 1 C-1 1.66 -1 2.32 -1 3 C-0.34 3 0.32 3 1 3 C0.67 2.01 0.34 1.02 0 0 Z " fill="#E1EEF7" transform="translate(73,33)"/>
<path d="M0 0 C3.3 0.66 6.6 1.32 10 2 C9.67 2.99 9.34 3.98 9 5 C8.34 5 7.68 5 7 5 C7 5.66 7 6.32 7 7 C7.639375 6.814375 8.27875 6.62875 8.9375 6.4375 C9.618125 6.293125 10.29875 6.14875 11 6 C12.97299514 7.97299514 12.18499989 11.68488518 12.1875 14.375 C12.19974609 15.06078125 12.21199219 15.7465625 12.22460938 16.453125 C12.23552331 20.19296797 12.1266842 21.8099737 10 25 C9.01 24.67 8.02 24.34 7 24 C7 24.66 7 25.32 7 26 C7.99 26.33 8.98 26.66 10 27 C8.78184562 31.68520915 7.30440013 35.70543612 5 40 C4.34 40 3.68 40 3 40 C2.67 41.32 2.34 42.64 2 44 C1.34 44 0.68 44 0 44 C0 44.66 0 45.32 0 46 C-2.1953125 47.69140625 -2.1953125 47.69140625 -5.125 49.5625 C-6.55199219 50.49255859 -6.55199219 50.49255859 -8.0078125 51.44140625 C-11.08705411 53.04534542 -13.56852286 53.6283415 -17 54 C-17.05406122 52.06280622 -17.09282025 50.12518079 -17.125 48.1875 C-17.14820312 47.10855469 -17.17140625 46.02960938 -17.1953125 44.91796875 C-17 42 -17 42 -15 39 C-13.68 39 -12.36 39 -11 39 C-11 38.34 -11 37.68 -11 37 C-12.32 37 -13.64 37 -15 37 C-14.39816251 34.97954558 -13.72693904 32.97888961 -13 31 C-12.34 30.67 -11.68 30.34 -11 30 C-11.33 29.34 -11.66 28.68 -12 28 C-11.0625 25.875 -11.0625 25.875 -10 24 C-9.34 24 -8.68 24 -8 24 C-7.62875 22.9171875 -7.62875 22.9171875 -7.25 21.8125 C-5.87730408 18.72393418 -4.27646704 16.48988582 -2 14 C-1.34 14 -0.68 14 0 14 C-0.33 13.34 -0.66 12.68 -1 12 C-1.16217149 7.70245555 -0.8514137 4.25706852 0 0 Z " fill="#EBF5E1" transform="translate(107,58)"/>
<path d="M0 0 C1.62715156 0.95467564 3.25165346 1.91386848 4.875 2.875 C5.77992187 3.40867187 6.68484375 3.94234375 7.6171875 4.4921875 C10 6 10 6 12 8 C12 8.99 12 9.98 12 11 C12.598125 11.04125 13.19625 11.0825 13.8125 11.125 C17.10555955 12.44222382 17.55882669 14.86701455 19 18 C20.56102491 19.81554159 20.56102491 19.81554159 22 21 C21.67 21.99 21.34 22.98 21 24 C21.99 24.33 22.98 24.66 24 25 C24.33 26.98 24.66 28.96 25 31 C24.01 31 23.02 31 22 31 C22.33 31.99 22.66 32.98 23 34 C21.5437455 34.67119549 20.08492133 35.33681807 18.625 36 C17.81289063 36.37125 17.00078125 36.7425 16.1640625 37.125 C14 38 14 38 12 38 C11.67 38.66 11.34 39.32 11 40 C11 39.34 11 38.68 11 38 C10.34 38 9.68 38 9 38 C9.61538462 30.49230769 9.61538462 30.49230769 11.5625 28 C12.036875 27.67 12.51125 27.34 13 27 C9.96474514 24.97649676 8.80573798 24.67875982 5.3125 24.375 C4.50425781 24.30023438 3.69601563 24.22546875 2.86328125 24.1484375 C2.24839844 24.09945312 1.63351563 24.05046875 1 24 C1 23.01 1 22.02 1 21 C1.99 20.67 2.98 20.34 4 20 C4 19.34 4 18.68 4 18 C5.96147874 16.61061923 7.96166576 15.2739589 10 14 C7.70223864 15.10632954 5.54671169 16.28060705 3.375 17.625 C1 19 1 19 -1 19 C-1.02683987 16.02077407 -1.04676037 13.04178705 -1.0625 10.0625 C-1.07087891 9.21236328 -1.07925781 8.36222656 -1.08789062 7.48632812 C-1.09111328 6.67744141 -1.09433594 5.86855469 -1.09765625 5.03515625 C-1.10289307 4.2862915 -1.10812988 3.53742676 -1.11352539 2.76586914 C-1 1 -1 1 0 0 Z M11 18 C12 20 12 20 12 20 Z " fill="#F9DDDA" transform="translate(39,64)"/>
<path d="M0 0 C3.97106338 0.58566043 6.81820149 1.80975599 10.25 3.875 C11.55710937 4.64457031 11.55710937 4.64457031 12.890625 5.4296875 C15 7 15 7 16 10 C15.01 10.495 15.01 10.495 14 11 C14.99 11 15.98 11 17 11 C17.66 11 18.32 11 19 11 C18.69217504 12.64671412 18.37860766 14.29235576 18.0625 15.9375 C17.80146484 17.31228516 17.80146484 17.31228516 17.53515625 18.71484375 C17 21 17 21 16 22 C15.73415178 23.9273996 15.4737453 25.85587464 15.25390625 27.7890625 C14.90014905 30.86947134 14.44742559 33.93193878 14 37 C10.18461538 34.53846154 10.18461538 34.53846154 9.25 31.8125 C9.12625 30.9153125 9.12625 30.9153125 9 30 C8.34 30 7.68 30 7 30 C6.731875 29.278125 6.46375 28.55625 6.1875 27.8125 C5.06767588 24.95860702 5.06767588 24.95860702 3.375 22.375 C2 20 2 20 2 17 C3.32 17.33 4.64 17.66 6 18 C6 17.01 6 16.02 6 15 C4.35 14.67 2.7 14.34 1 14 C-0.04976964 10.85069107 -0.10131595 8.61185544 -0.0625 5.3125 C-0.05347656 4.31863281 -0.04445313 3.32476562 -0.03515625 2.30078125 C-0.02355469 1.54152344 -0.01195313 0.78226563 0 0 Z " fill="#54B2DE" transform="translate(90,35)"/>
<path d="M0 0 C0.66 0.33 1.32 0.66 2 1 C2 1.66 2 2.32 2 3 C2.66 3 3.32 3 4 3 C4.33 2.34 4.66 1.68 5 1 C7.64 2.32 10.28 3.64 13 5 C12.34 5.66 11.68 6.32 11 7 C12.65 6.67 14.3 6.34 16 6 C15.625 8.9375 15.625 8.9375 15 12 C14.01 12.495 14.01 12.495 13 13 C13 13.99 13 14.98 13 16 C12 17 11 18 10 19 C9.5359375 20.2684375 9.5359375 20.2684375 9.0625 21.5625 C8 24 8 24 5.875 25.3125 C4.946875 25.6528125 4.946875 25.6528125 4 26 C3.34 25.34 2.68 24.68 2 24 C1.401875 23.855625 0.80375 23.71125 0.1875 23.5625 C-2.62143341 22.84020284 -4.65395263 21.69436754 -7 20 C-7 19.01 -7 18.02 -7 17 C-7.66 17 -8.32 17 -9 17 C-8.505 15.515 -8.505 15.515 -8 14 C-7.01 13.67 -6.02 13.34 -5 13 C-5.66 12.67 -6.32 12.34 -7 12 C-5.80100302 8.9168649 -4.52299523 5.93720508 -3 3 C-2.34 3 -1.68 3 -1 3 C-0.67 2.01 -0.34 1.02 0 0 Z " fill="#F1EAF1" transform="translate(48,46)"/>
<path d="M0 0 C3.3 0.66 6.6 1.32 10 2 C9.67 2.99 9.34 3.98 9 5 C8.34 5 7.68 5 7 5 C7 5.66 7 6.32 7 7 C7.639375 6.814375 8.27875 6.62875 8.9375 6.4375 C9.618125 6.293125 10.29875 6.14875 11 6 C12.97299514 7.97299514 12.18499989 11.68488518 12.1875 14.375 C12.19974609 15.06078125 12.21199219 15.7465625 12.22460938 16.453125 C12.23552331 20.19296797 12.1266842 21.8099737 10 25 C8.53977837 24.04454634 7.08188532 23.08553322 5.625 22.125 C4.81289062 21.59132813 4.00078125 21.05765625 3.1640625 20.5078125 C1 19 1 19 -1 17 C-1.23046875 14.35546875 -1.23046875 14.35546875 -1.1875 11.1875 C-1.18105469 10.14980469 -1.17460938 9.11210938 -1.16796875 8.04296875 C-1 5 -1 5 0 0 Z " fill="#1679BE" transform="translate(107,58)"/>
<path d="M0 0 C0.99 0 1.98 0 3 0 C3 2.31 3 4.62 3 7 C3.99 6.34 4.98 5.68 6 5 C9.38403549 5.14100148 11.31921738 5.42902103 13.9375 7.625 C15.48427533 11.0824978 14.92030612 13.38451169 14 17 C12.80078125 18.703125 12.80078125 18.703125 11 20 C7.29631297 20.40199208 3.73655831 20.13187853 0 20 C0 13.4 0 6.8 0 0 Z " fill="#1B7BBF" transform="translate(185,46)"/>
<path d="M0 0 C1.32 0 2.64 0 4 0 C5.1734316 2.60130627 6.33892508 5.20568508 7.5 7.8125 C7.83386719 8.55048828 8.16773438 9.28847656 8.51171875 10.04882812 C8.82753906 10.76103516 9.14335937 11.47324219 9.46875 12.20703125 C9.90864258 13.18893433 9.90864258 13.18893433 10.35742188 14.19067383 C11 16 11 16 11 19 C9.0625 18.625 9.0625 18.625 7 18 C6.67 17.34 6.34 16.68 6 16 C3.03 16 0.06 16 -3 16 C-3.33 16.99 -3.66 17.98 -4 19 C-5.32 19 -6.64 19 -8 19 C-6.00386732 12.2813095 -3.2708579 6.19265192 0 0 Z " fill="#2481C1" transform="translate(241,47)"/>
<path d="M0 0 C2.5625 1.5625 2.5625 1.5625 4 4 C3.93913078 7.46954545 3.6274029 9.91947278 1.875 12.9375 C-1.18452459 14.6712306 -3.56817525 14.42145216 -7 14 C-9.4375 12.4375 -9.4375 12.4375 -11 10 C-11.42213381 6.56262469 -11.60856522 4.17909511 -10 1.0625 C-6.75462393 -0.66160604 -3.53203487 -0.62413468 0 0 Z " fill="#1E7DC0" transform="translate(178,52)"/>
<path d="M0 0 C0.66 1.32 1.32 2.64 2 4 C0.68 4 -0.64 4 -2 4 C-4.33634657 4.31151288 -6.67038557 4.64159778 -9 5 C-10.13266151 9.57239006 -10.13266151 9.57239006 -9 13.9375 C-6.00926074 15.52633023 -3.31998061 15.18792343 0 15 C0 13.68 0 12.36 0 11 C-1.65 11 -3.3 11 -5 11 C-5 10.01 -5 9.02 -5 8 C-2.36 8 0.28 8 3 8 C3.08096803 9.45742463 3.13917774 10.91612807 3.1875 12.375 C3.23970703 13.59316406 3.23970703 13.59316406 3.29296875 14.8359375 C3.19628906 15.55007812 3.09960938 16.26421875 3 17 C-1.03485494 19.68990329 -4.26228652 19.77993882 -9 19 C-12.0625 17.0625 -12.0625 17.0625 -14 14 C-15.03945854 9.24941677 -14.669717 6.05858493 -12.0625 1.9375 C-7.94841058 -0.66529126 -4.7373412 -0.46444522 0 0 Z " fill="#1C7CBF" transform="translate(153,47)"/>
<path d="M0 0 C5.06998019 0.65419099 9.41990777 2.8546409 14 5 C12.52907147 8.80127597 10.59783572 10.2095802 7.125 12.25 C6.26132813 12.77078125 5.39765625 13.2915625 4.5078125 13.828125 C2 15 2 15 -2 15 C-2.05406122 13.06280622 -2.09282025 11.12518079 -2.125 9.1875 C-2.14820312 8.10855469 -2.17140625 7.02960938 -2.1953125 5.91796875 C-2 3 -2 3 0 0 Z " fill="#90C745" transform="translate(92,97)"/>
<path d="M0 0 C1.00109515 3.31070838 1.10356134 6.30084769 1.0625 9.75 C1.05347656 10.73484375 1.04445313 11.7196875 1.03515625 12.734375 C1.02355469 13.48203125 1.01195313 14.2296875 1 15 C-4.65884605 13.54901383 -9.51648691 10.70951715 -14 7 C-14.33 6.01 -14.66 5.02 -15 4 C-13.25705322 3.13153169 -11.50531337 2.28069373 -9.75 1.4375 C-8.77546875 0.96183594 -7.8009375 0.48617187 -6.796875 -0.00390625 C-3.90143703 -1.03510273 -2.80033839 -1.11346788 0 0 Z " fill="#FAA93C" transform="translate(66,98)"/>
<path d="M0 0 C-0.33 4.62 -0.66 9.24 -1 14 C-6.28591148 15.0571823 -6.90786412 14.97036762 -11.3125 12.5625 C-12.19550781 12.08941406 -13.07851563 11.61632813 -13.98828125 11.12890625 C-14.65214844 10.75636719 -15.31601562 10.38382813 -16 10 C-14.51266474 5.95163184 -12.30586407 4.71862174 -8.5625 2.75 C-7.59441406 2.22921875 -6.62632813 1.7084375 -5.62890625 1.171875 C-3 0 -3 0 0 0 Z " fill="#A580B5" transform="translate(67,35)"/>
<path d="M0 0 C1.64689635 0.97737769 3.29248854 1.9569532 4.9375 2.9375 C5.85402344 3.48277344 6.77054688 4.02804688 7.71484375 4.58984375 C10 6 10 6 11 7 C11.296875 9.359375 11.296875 9.359375 11 12 C9.390625 13.765625 9.390625 13.765625 7.25 15.25 C6.20585938 16.00023437 6.20585938 16.00023437 5.140625 16.765625 C3.05004371 17.97114268 1.33251299 18.47149235 -1 19 C-1.02683987 16.02077407 -1.04676037 13.04178705 -1.0625 10.0625 C-1.07087891 9.21236328 -1.07925781 8.36222656 -1.08789062 7.48632812 C-1.09111328 6.67744141 -1.09433594 5.86855469 -1.09765625 5.03515625 C-1.10289307 4.2862915 -1.10812988 3.53742676 -1.11352539 2.76586914 C-1 1 -1 1 0 0 Z " fill="#E65043" transform="translate(39,64)"/>
<path d="M0 0 C1.62463842 -0.05395478 3.24978541 -0.09277195 4.875 -0.125 C5.77992188 -0.14820313 6.68484375 -0.17140625 7.6171875 -0.1953125 C10 0 10 0 12 2 C12.1953125 4.8203125 12.1953125 4.8203125 12.125 8.125 C12.10695312 9.22070312 12.08890625 10.31640625 12.0703125 11.4453125 C12.04710937 12.28835937 12.02390625 13.13140625 12 14 C10.20866022 14.05391993 8.41686101 14.09275571 6.625 14.125 C5.62726563 14.14820312 4.62953125 14.17140625 3.6015625 14.1953125 C1 14 1 14 -1 12 C-1.25 9.5 -1.25 9.5 -1 7 C1 5 1 5 4.625 4.875 C6.295625 4.936875 6.295625 4.936875 8 5 C8 4.34 8 3.68 8 3 C5.36 3 2.72 3 0 3 C0 2.01 0 1.02 0 0 Z " fill="#3289C5" transform="translate(203,52)"/>
<path d="M0 0 C1.62463842 -0.05395478 3.24978541 -0.09277195 4.875 -0.125 C5.77992188 -0.14820313 6.68484375 -0.17140625 7.6171875 -0.1953125 C10 0 10 0 12 2 C12.1953125 4.8203125 12.1953125 4.8203125 12.125 8.125 C12.10695313 9.22070312 12.08890625 10.31640625 12.0703125 11.4453125 C12.04710937 12.28835937 12.02390625 13.13140625 12 14 C10.20866022 14.05391993 8.41686101 14.09275571 6.625 14.125 C5.62726563 14.14820312 4.62953125 14.17140625 3.6015625 14.1953125 C1 14 1 14 -1 12 C-1.3125 9.5 -1.3125 9.5 -1 7 C2.4352048 4.70986347 3.985331 4.82157027 8 5 C8 4.34 8 3.68 8 3 C5.69 3 3.38 3 1 3 C0.67 2.01 0.34 1.02 0 0 Z " fill="#1A7BBF" transform="translate(278,52)"/>
<path d="M0 0 C2.375 1.5625 2.375 1.5625 4 4 C4 7.81153499 3.80074051 10.05097421 1.3125 13 C-1.86108915 14.37236288 -3.72882454 13.99557514 -7 13 C-9.46943529 9.29584707 -9.46913089 7.37855495 -9 3 C-6.35893733 -0.03233122 -3.92985113 -0.68772395 0 0 Z " fill="#8B8C8E" transform="translate(238,82)"/>
<path d="M0 0 C1.875 0.3203125 1.875 0.3203125 3.875 1.5078125 C4.875 3.3203125 4.875 3.3203125 4.875 8.3203125 C1.575 8.3203125 -1.725 8.3203125 -5.125 8.3203125 C-4.795 8.9803125 -4.465 9.6403125 -4.125 10.3203125 C-1.815 10.3203125 0.495 10.3203125 2.875 10.3203125 C3.205 11.3103125 3.535 12.3003125 3.875 13.3203125 C0.85631566 14.82965467 -1.79797229 14.49541922 -5.125 14.3203125 C-8.125 12.3203125 -8.125 12.3203125 -9 8.4453125 C-9.22107068 5.74333756 -9.15527885 4.40105609 -8.1875 1.8203125 C-5.42074951 -0.19186967 -3.36011702 -0.18530057 0 0 Z " fill="#207EC0" transform="translate(333.125,51.6796875)"/>
<path d="M0 0 C3.375 0.875 3.375 0.875 5.375 2.875 C5.92087156 8.87958716 5.92087156 8.87958716 4.3125 11.8125 C1.25523824 13.4890629 -1.2156288 13.24028977 -4.625 12.875 C-6.5625 11.75 -6.5625 11.75 -7.625 9.875 C-8.16352618 6.25918138 -8.04736225 4.53388511 -6.0625 1.4375 C-3.625 -0.125 -3.625 -0.125 0 0 Z " fill="#F4F4F5" transform="translate(154.625,82.125)"/>
<path d="M0 0 C0 1.32 0 2.64 0 4 C0.66 4 1.32 4 2 4 C2.33 3.01 2.66 2.02 3 1 C3.33 5.29 3.66 9.58 4 14 C3.34 14 2.68 14 2 14 C2.33 14.99 2.66 15.98 3 17 C-0.3125 17.6875 -0.3125 17.6875 -4 18 C-5.9375 16.5625 -5.9375 16.5625 -7 15 C-6.690625 14.401875 -6.38125 13.80375 -6.0625 13.1875 C-4.89790296 10.91043228 -4.89790296 10.91043228 -4 8 C-4.99 7.67 -5.98 7.34 -7 7 C-3.86206897 0 -3.86206897 0 0 0 Z " fill="#E5F3F9" transform="translate(87,34)"/>
<path d="M0 0 C2.625 0.125 2.625 0.125 5.625 1.125 C5.625 0.795 5.625 0.465 5.625 0.125 C10.42148079 0.125 14.86494903 0.41980726 19.625 1.125 C16.68008463 4.31532498 14.86490994 6.21644787 10.625 7.125 C10.295 8.115 9.965 9.105 9.625 10.125 C7.975 9.795 6.325 9.465 4.625 9.125 C4.625 8.465 4.625 7.805 4.625 7.125 C4.0475 6.8775 3.47 6.63 2.875 6.375 C0.3247003 4.95816683 -1.39285701 3.24872463 -3.375 1.125 C-2.375 0.125 -2.375 0.125 0 0 Z " fill="#FDE1BC" transform="translate(70.375,94.875)"/>
<path d="M0 0 C2.11844494 3.44247303 2.08129041 6.01676988 2 10 C2.291224 11.67453799 2.61070799 13.34550895 3 15 C1.35 15 -0.3 15 -2 15 C-2 15.66 -2 16.32 -2 17 C-6.455 18.485 -6.455 18.485 -11 20 C-10.39816251 17.97954558 -9.72693904 15.97888961 -9 14 C-8.34 13.67 -7.68 13.34 -7 13 C-7.33 12.34 -7.66 11.68 -8 11 C-7.0625 8.875 -7.0625 8.875 -6 7 C-5.34 7 -4.68 7 -4 7 C-3.71125 6.21625 -3.4225 5.4325 -3.125 4.625 C-2 2 -2 2 0 0 Z " fill="#D6EABB" transform="translate(103,75)"/>
<path d="M0 0 C5.75 1.875 5.75 1.875 8 3 C8.33 3.99 8.66 4.98 9 6 C10.65 5.67 12.3 5.34 14 5 C13.38487182 10.00890086 12.7282448 15.00632136 12 20 C8.18461538 17.53846154 8.18461538 17.53846154 7.25 14.8125 C7.1675 14.214375 7.085 13.61625 7 13 C6.34 13 5.68 13 5 13 C4.731875 12.278125 4.46375 11.55625 4.1875 10.8125 C3.06767588 7.95860702 3.06767588 7.95860702 1.375 5.375 C0 3 0 3 0 0 Z " fill="#82B7DC" transform="translate(92,52)"/>
<path d="M0 0 C1.2065625 0.0309375 1.2065625 0.0309375 2.4375 0.0625 C2.4375 0.7225 2.4375 1.3825 2.4375 2.0625 C1.1175 2.0625 -0.2025 2.0625 -1.5625 2.0625 C-1.5625 3.3825 -1.5625 4.7025 -1.5625 6.0625 C0.0875 6.0625 1.7375 6.0625 3.4375 6.0625 C3.4375 5.4025 3.4375 4.7425 3.4375 4.0625 C4.4275 4.0625 5.4175 4.0625 6.4375 4.0625 C7.7858286 7.12688317 7.32841528 8.44108816 6.375 11.75 C4.4375 15.0625 4.4375 15.0625 1.4375 16.1875 C-1.5625 16.0625 -1.5625 16.0625 -3.4375 14.9375 C-4.88483508 12.52527487 -4.78667836 10.8273665 -4.5625 8.0625 C-3.9025 8.0625 -3.2425 8.0625 -2.5625 8.0625 C-2.8409375 6.3609375 -2.8409375 6.3609375 -3.125 4.625 C-3.3415625 2.8615625 -3.3415625 2.8615625 -3.5625 1.0625 C-2.5625 0.0625 -2.5625 0.0625 0 0 Z " fill="#8D8D90" transform="translate(313.5625,79.9375)"/>
<path d="M0 0 C2.28062828 3.42094242 2.21925007 4.68187222 2.125 8.6875 C2.10695313 9.68136719 2.08890625 10.67523438 2.0703125 11.69921875 C2.03550781 12.83810547 2.03550781 12.83810547 2 14 C0.68 14 -0.64 14 -2 14 C-2.33 10.7 -2.66 7.4 -3 4 C-4.32 4 -5.64 4 -7 4 C-7.33 7.3 -7.66 10.6 -8 14 C-8.99 14 -9.98 14 -11 14 C-11 9.38 -11 4.76 -11 0 C-6.50552991 -0.89889402 -4.29307885 -1.14482103 0 0 Z " fill="#3087C5" transform="translate(305,52)"/>
<path d="M0 0 C0.66 0.33 1.32 0.66 2 1 C2 1.66 2 2.32 2 3 C1.37351563 2.97679688 0.74703125 2.95359375 0.1015625 2.9296875 C-0.71570313 2.91164063 -1.53296875 2.89359375 -2.375 2.875 C-3.59316406 2.84019531 -3.59316406 2.84019531 -4.8359375 2.8046875 C-7.21342243 2.78629949 -7.21342243 2.78629949 -9 5 C-9.24253813 7.21072977 -9.24253813 7.21072977 -9.125 9.625 C-9.08375 11.06875 -9.0425 12.5125 -9 14 C-6.03 14 -3.06 14 0 14 C0.33 12.68 0.66 11.36 1 10 C-0.65 10 -2.3 10 -4 10 C-4 9.34 -4 8.68 -4 8 C-1.69 8 0.62 8 3 8 C3.48 14.36 3.48 14.36 1.5 17 C-2.14758285 18.45903314 -5.34374234 18.22125 -9 17 C-12.00808769 14.36792327 -12.88934188 12.90370799 -13.375 8.9375 C-13.00950778 6.0744776 -12.60997354 4.37259259 -11 2 C-6.94641576 -0.70238949 -4.81689896 -0.22937614 0 0 Z " fill="#949497" transform="translate(193,78)"/>
<path d="M0 0 C0.66 0 1.32 0 2 0 C2 2.31 2 4.62 2 7 C4.97 7 7.94 7 11 7 C11 4.69 11 2.38 11 0 C11.99 0 12.98 0 14 0 C14 5.61 14 11.22 14 17 C13.01 17 12.02 17 11 17 C11 14.69 11 12.38 11 10 C8.03 10 5.06 10 2 10 C2 12.31 2 14.62 2 17 C1.34 17 0.68 17 0 17 C0 11.39 0 5.78 0 0 Z " fill="#A0A0A2" transform="translate(333,78)"/>
<path d="M0 0 C2.91923724 0.03739497 2.91923724 0.03739497 5.5 -0.1875 C8 0 8 0 9.64453125 1.1875 C11.46636808 3.62361611 11.30461613 5.18151939 11.1875 8.1875 C11.16042969 9.08855469 11.13335937 9.98960938 11.10546875 10.91796875 C11.07066406 11.60503906 11.03585937 12.29210937 11 13 C10.01 13 9.02 13 8 13 C7.505 8.05 7.505 8.05 7 3 C5.68 3.33 4.36 3.66 3 4 C2.67 6.97 2.34 9.94 2 13 C1.34 13 0.68 13 0 13 C-0.33 10.03 -0.66 7.06 -1 4 C-2.32 3.67 -3.64 3.34 -5 3 C-6.58272601 4.58272601 -6.34735747 6.38034003 -6.5625 8.5625 C-6.64628906 9.38878906 -6.73007813 10.21507813 -6.81640625 11.06640625 C-6.87699219 11.70449219 -6.93757812 12.34257813 -7 13 C-7.66 13 -8.32 13 -9 13 C-9 9.04 -9 5.08 -9 1 C-5.64960978 0.16240244 -3.37082079 -0.0864313 0 0 Z " fill="#828385" transform="translate(254,82)"/>
<path d="M0 0 C0.66 0 1.32 0 2 0 C2 0.66 2 1.32 2 2 C4.86964055 2.73790757 6.75795825 3.0506599 9.6875 2.4375 C10.8321875 2.2209375 10.8321875 2.2209375 12 2 C14 4 14 4 14 8 C12.35 8.33 10.7 8.66 9 9 C10.65 9 12.3 9 14 9 C13.67 9.66 13.34 10.32 13 11 C8.46527914 11 4.43908976 10.93454521 0 10 C-1.125 2.25 -1.125 2.25 0 0 Z " fill="#E3EFF7" transform="translate(391,118)"/>
<path d="M0 0 C2.5 0.5625 2.5 0.5625 4.8125 2.875 C6.5 5.5625 6.5 5.5625 6.5 8.5625 C3.2 8.5625 -0.1 8.5625 -3.5 8.5625 C-3.17 9.2225 -2.84 9.8825 -2.5 10.5625 C0.14 10.5625 2.78 10.5625 5.5 10.5625 C5.17 11.5525 4.84 12.5425 4.5 13.5625 C-2.92309859 14.04926056 -2.92309859 14.04926056 -5.5 11.875 C-6.69862599 9.1031774 -7.02258446 7.54869691 -6.5 4.5625 C-4.51091327 1.83671449 -3.30749138 0.74418556 0 0 Z " fill="#8C8D8F" transform="translate(356.5,81.4375)"/>
<path d="M0 0 C1.8125 1.1875 1.8125 1.1875 3 3 C3.1875 5.6875 3.1875 5.6875 3 8 C0.03 8 -2.94 8 -6 8 C-5.67 8.66 -5.34 9.32 -5 10 C-2.36 10 0.28 10 3 10 C3 10.66 3 11.32 3 12 C-0.0832635 13.54163175 -2.60878099 13.29747535 -6 13 C-8 11.4375 -8 11.4375 -9 9 C-8.875 5.375 -8.875 5.375 -8 2 C-4.76746204 -0.15502531 -3.74849077 -0.46856135 0 0 Z " fill="#8B8B8D" transform="translate(208,82)"/>
<path d="M0 0 C1.32 0 2.64 0 4 0 C4.33 1.65 4.66 3.3 5 5 C6.65 4.67 8.3 4.34 10 4 C9.33333333 5.33333333 8.66666667 6.66666667 8 8 C7.690625 8.680625 7.38125 9.36125 7.0625 10.0625 C5.931399 12.12509594 4.80445083 13.49629098 3 15 C1 15 1 15 -0.8125 13.25 C-1.534375 12.5075 -2.25625 11.765 -3 11 C-4.65191491 9.64843325 -6.31522656 8.31037934 -8 7 C-5.69 6.34 -3.38 5.68 -1 5 C-0.67 3.35 -0.34 1.7 0 0 Z " fill="#CEBBD7" transform="translate(51,57)"/>
<path d="M0 0 C0.33 1.32 0.66 2.64 1 4 C1.928125 4.0928125 1.928125 4.0928125 2.875 4.1875 C5 5 5 5 6.25 7.5625 C6.4975 8.366875 6.745 9.17125 7 10 C5.5437455 10.67119549 4.08492133 11.33681807 2.625 12 C1.40683594 12.556875 1.40683594 12.556875 0.1640625 13.125 C-2 14 -2 14 -4 14 C-4.33 14.66 -4.66 15.32 -5 16 C-5 15.34 -5 14.68 -5 14 C-5.66 14 -6.32 14 -7 14 C-6.39086294 6.56852792 -6.39086294 6.56852792 -4.625 4 C-3 3 -3 3 0 3 C0 2.01 0 1.02 0 0 Z " fill="#FBE7E1" transform="translate(55,88)"/>
<path d="M0 0 C5.48076923 -0.36538462 5.48076923 -0.36538462 7.6875 1.1875 C9.45312631 3.62574585 9.30348915 5.21044507 9.1875 8.1875 C9.16042969 9.08855469 9.13335937 9.98960938 9.10546875 10.91796875 C9.07066406 11.60503906 9.03585937 12.29210937 9 13 C7.35425434 13.02688151 5.70838587 13.04634123 4.0625 13.0625 C3.14597656 13.07410156 2.22945313 13.08570312 1.28515625 13.09765625 C-1 13 -1 13 -2 12 C-2.1875 9.5625 -2.1875 9.5625 -2 7 C0 5 0 5 3.125 4.875 C4.07375 4.91625 5.0225 4.9575 6 5 C5.67 4.34 5.34 3.68 5 3 C3.02 3 1.04 3 -1 3 C-0.67 2.01 -0.34 1.02 0 0 Z " fill="#7B7C7F" transform="translate(367,82)"/>
<path d="M0 0 C0.99 -0.33 1.98 -0.66 3 -1 C2.34 2.3 1.68 5.6 1 9 C-0.65 9.33 -2.3 9.66 -4 10 C-4.33 10.66 -4.66 11.32 -5 12 C-5.103125 11.360625 -5.20625 10.72125 -5.3125 10.0625 C-5.539375 9.381875 -5.76625 8.70125 -6 8 C-6.99 7.67 -7.98 7.34 -9 7 C-10.1875 4.4375 -10.1875 4.4375 -11 2 C-3.92459016 -1.40163934 -3.92459016 -1.40163934 0 0 Z " fill="#D9EAF4" transform="translate(106,47)"/>
<path d="M0 0 C3 0.375 3 0.375 6 1 C8.42797311 1 10.62907005 0.49914315 13 0 C13 0.99 13 1.98 13 3 C11.68 3 10.36 3 9 3 C8.67 4.32 8.34 5.64 8 7 C10.31 7 12.62 7 15 7 C14.67 7.66 14.34 8.32 14 9 C11.33333333 9 8.66666667 9 6 9 C4.2365625 9.0309375 4.2365625 9.0309375 2.4375 9.0625 C-1 9 -1 9 -2 8 C-2.1875 5.0625 -2.1875 5.0625 -2 2 C-1.34 1.34 -0.68 0.68 0 0 Z " fill="#84B8DC" transform="translate(335,120)"/>
<path d="M0 0 C0 1.32 0 2.64 0 4 C-2.31 4 -4.62 4 -7 4 C-7 5.65 -7 7.3 -7 9 C-4.23735711 9.59732819 -1.83967231 10 1 10 C1 10.99 1 11.98 1 13 C-2.09173752 14.54586876 -4.59429552 14.29359521 -8 14 C-10.4375 12.375 -10.4375 12.375 -12 10 C-12.60024477 6.39853135 -12.45562482 4.72140596 -10.5 1.625 C-6.86748926 -0.73613198 -4.28156703 -0.2854378 0 0 Z " fill="#2581C2" transform="translate(321,52)"/>
<path d="M0 0 C0.66 0 1.32 0 2 0 C2.33 0.99 2.66 1.98 3 3 C3.804375 3.144375 4.60875 3.28875 5.4375 3.4375 C8 4 8 4 9 5 C9.125 8 9.125 8 9 11 C8 12 8 12 6.15234375 12.09765625 C4.1015625 12.06510417 2.05078125 12.03255208 0 12 C0 8.04 0 4.08 0 0 Z " fill="#4091C9" transform="translate(179,117)"/>
<path d="M0 0 C2 2 2 2 2.1953125 4.3828125 C2.17210937 5.28773437 2.14890625 6.19265625 2.125 7.125 C2.10695312 8.03507812 2.08890625 8.94515625 2.0703125 9.8828125 C2.04710937 10.58148438 2.02390625 11.28015625 2 12 C1.01 12 0.02 12 -1 12 C-1.33 8.7 -1.66 5.4 -2 2 C-3.32 2 -4.64 2 -6 2 C-6.33 5.3 -6.66 8.6 -7 12 C-7.99 12 -8.98 12 -10 12 C-10 8.04 -10 4.08 -10 0 C-5.66955459 -0.86608908 -3.99392372 -1.18738273 0 0 Z " fill="#8F9093" transform="translate(224,83)"/>
<path d="M0 0 C1.9375 0.75 1.9375 0.75 4 2 C4.8125 4.0625 4.8125 4.0625 5 6 C4.67 6.33 4.34 6.66 4 7 C4.99 7.33 5.98 7.66 7 8 C7.33 9.98 7.66 11.96 8 14 C4.06520655 12.86328189 1.85333924 11.85333924 -1 9 C-2.32 9 -3.64 9 -5 9 C-5 7.68 -5 6.36 -5 5 C-3.68 4.67 -2.36 4.34 -1 4 C-0.67 2.68 -0.34 1.36 0 0 Z " fill="#EF9189" transform="translate(56,81)"/>
<path d="M0 0 C1.32 0 2.64 0 4 0 C4 6.6 4 13.2 4 20 C2.68 20 1.36 20 0 20 C0 13.4 0 6.8 0 0 Z " fill="#2F88C5" transform="translate(255,46)"/>
<path d="M0 0 C3.3 0.66 6.6 1.32 10 2 C9.67 2.99 9.34 3.98 9 5 C8.34 5 7.68 5 7 5 C7.33 5.99 7.66 6.98 8 8 C5.36 9.65 2.72 11.3 0 13 C-1 12 -1 12 -1.125 8.75 C-1 5 -1 5 0 0 Z " fill="#CBE0F0" transform="translate(107,58)"/>
<path d="M0 0 C0.66 0 1.32 0 2 0 C2.33 1.98 2.66 3.96 3 6 C3.33 5.67 3.66 5.34 4 5 C6.4375 4.8125 6.4375 4.8125 9 5 C11 7 11 7 11.1953125 9.6015625 C11.17210937 10.59929687 11.14890625 11.59703125 11.125 12.625 C11.10695313 13.62789062 11.08890625 14.63078125 11.0703125 15.6640625 C11.03550781 16.82035156 11.03550781 16.82035156 11 18 C10.34 18 9.68 18 9 18 C8.67 15.03 8.34 12.06 8 9 C6.68 8.67 5.36 8.34 4 8 C2.41727399 9.58272601 2.65264253 11.38034003 2.4375 13.5625 C2.35371094 14.38878906 2.26992188 15.21507813 2.18359375 16.06640625 C2.12300781 16.70449219 2.06242187 17.34257813 2 18 C1.34 18 0.68 18 0 18 C0 12.06 0 6.12 0 0 Z " fill="#7E7F82" transform="translate(396,77)"/>
<path d="M0 0 C3.375 0.875 3.375 0.875 5.375 2.875 C5.92087156 8.87958716 5.92087156 8.87958716 4.3125 11.8125 C1.25523824 13.4890629 -1.2156288 13.24028977 -4.625 12.875 C-6.5625 11.75 -6.5625 11.75 -7.625 9.875 C-8.16352618 6.25918138 -8.04736225 4.53388511 -6.0625 1.4375 C-3.625 -0.125 -3.625 -0.125 0 0 Z M-4.375 3.0625 C-5.89489639 4.86154222 -5.89489639 4.86154222 -5.4375 7.4375 C-4.77872967 10.01941272 -4.77872967 10.01941272 -2.625 11.875 C0.68183466 11.58516731 0.68183466 11.58516731 3.375 9.875 C3.70840471 6.91695427 3.70840471 6.91695427 3.375 3.875 C0.2750627 1.80837513 -1.15440482 0.87709613 -4.375 3.0625 Z " fill="#7F8082" transform="translate(154.625,82.125)"/>
<path d="M0 0 C1.46726798 3.81489674 0.43336419 6.29011622 -1 10 C-3.875 10.125 -3.875 10.125 -7 10 C-9 8 -9 8 -9.3125 5.5 C-9.209375 4.675 -9.10625 3.85 -9 3 C-5.81237635 0.87491756 -3.73487777 0.4979837 0 0 Z " fill="#338AC6" transform="translate(286,56)"/>
<path d="M0 0 C0.33 0.33 0.66 0.66 1 1 C0.71269945 3.33944736 0.38063221 5.6739143 0 8 C-2.875 8.125 -2.875 8.125 -6 8 C-6.66 7.34 -7.32 6.68 -8 6 C-7.75 2.9375 -7.75 2.9375 -7 0 C-4.31633121 -1.3418344 -2.84719317 -0.73004953 0 0 Z " fill="#3B8EC8" transform="translate(274,121)"/>
<path d="M0 0 C3.29714793 0.32971479 4.6226839 0.6226839 7 3 C6.44444444 7.55555556 6.44444444 7.55555556 5 9 C2 9.125 2 9.125 -1 9 C-2 8 -2 8 -2.1875 5.0625 C-2 2 -2 2 0 0 Z " fill="#3A8EC8" transform="translate(192,120)"/>
<path d="M0 0 C2.5 1.375 2.5 1.375 5 3 C5 3.66 5 4.32 5 5 C6.32 5.33 7.64 5.66 9 6 C7.55922954 9.36179774 5.75249979 11.59156268 3 14 C2.34 14 1.68 14 1 14 C1.33 12.35 1.66 10.7 2 9 C1.34 9 0.68 9 0 9 C0 6.03 0 3.06 0 0 Z " fill="#FCE2BE" transform="translate(68,100)"/>
<path d="M0 0 C1 1 1 1 1.1875 3.4375 C1 6 1 6 -1 8 C-3.5 8.25 -3.5 8.25 -6 8 C-6.66 7.34 -7.32 6.68 -8 6 C-7.75 2.9375 -7.75 2.9375 -7 0 C-4.31633121 -1.3418344 -2.84719317 -0.73004953 0 0 Z " fill="#2783C2" transform="translate(158,121)"/>
<path d="M0 0 C3.29714793 0.32971479 4.6226839 0.6226839 7 3 C6.44444444 7.55555556 6.44444444 7.55555556 5 9 C3.00041636 9.04080783 0.99954746 9.04254356 -1 9 C-1.625 5.625 -1.625 5.625 -2 2 C-1.34 1.34 -0.68 0.68 0 0 Z " fill="#F7F7F8" transform="translate(233,84)"/>
<path d="M0 0 C0.928125 0.20625 1.85625 0.4125 2.8125 0.625 C2.8125 1.285 2.8125 1.945 2.8125 2.625 C0.8325 2.625 -1.1475 2.625 -3.1875 2.625 C-1.22367993 4.13059539 0.59513366 5.51631683 2.8125 6.625 C2.855221 8.29111905 2.85313832 9.95882885 2.8125 11.625 C1.8125 12.625 1.8125 12.625 -1.75 12.6875 C-2.884375 12.666875 -4.01875 12.64625 -5.1875 12.625 C-5.5175 11.635 -5.8475 10.645 -6.1875 9.625 C-3.8775 9.955 -1.5675 10.285 0.8125 10.625 C0.8125 9.635 0.8125 8.645 0.8125 7.625 C-2.1575 7.13 -2.1575 7.13 -5.1875 6.625 C-5.5175 4.975 -5.8475 3.325 -6.1875 1.625 C-3.1875 -0.375 -3.1875 -0.375 0 0 Z " fill="#8E8E90" transform="translate(294.1875,82.375)"/>
<path d="M0 0 C0.99 0 1.98 0 3 0 C3 6.6 3 13.2 3 20 C2.01 20 1.02 20 0 20 C0 13.4 0 6.8 0 0 Z " fill="#1276BD" transform="translate(263,46)"/>
<path d="M0 0 C0.99 0 1.98 0 3 0 C3 6.6 3 13.2 3 20 C2.01 20 1.02 20 0 20 C0 13.4 0 6.8 0 0 Z " fill="#1176BC" transform="translate(219,46)"/>
<path d="M0 0 C0.99 0 1.98 0 3 0 C3 6.6 3 13.2 3 20 C2.01 20 1.02 20 0 20 C0 13.4 0 6.8 0 0 Z " fill="#1276BC" transform="translate(160,46)"/>
<path d="M0 0 C2.97526665 2.55022856 4.50122302 5.40293526 6 9 C5.67 9.99 5.34 10.98 5 12 C4.67 11.01 4.34 10.02 4 9 C1.69 9 -0.62 9 -3 9 C-3 9.99 -3 10.98 -3 12 C-3.66 12 -4.32 12 -5 12 C-4.54738642 10.56068883 -4.08767021 9.12361001 -3.625 7.6875 C-3.24214844 6.48673828 -3.24214844 6.48673828 -2.8515625 5.26171875 C-2 3 -2 3 0 0 Z " fill="#579ECF" transform="translate(325,117)"/>
<path d="M0 0 C2.5 0.125 2.5 0.125 3.5 1.125 C3.625 4.125 3.625 4.125 3.5 7.125 C2.5 8.125 2.5 8.125 0.0625 8.3125 C-2.5 8.125 -2.5 8.125 -4.5 6.125 C-3.77607362 0.18880368 -3.77607362 0.18880368 0 0 Z " fill="#F1F7FA" transform="translate(174.5,54.875)"/>
<path d="M0 0 C2.00720923 0.28674418 4.0085944 0.61866701 6 1 C5.649375 1.94875 5.29875 2.8975 4.9375 3.875 C3.64973223 6.87060172 3.64973223 6.87060172 5 9 C4.67 9.66 4.34 10.32 4 11 C2.02 11 0.04 11 -2 11 C-1.85957123 9.35369672 -1.71250671 7.70795821 -1.5625 6.0625 C-1.48128906 5.14597656 -1.40007812 4.22945312 -1.31640625 3.28515625 C-1 1 -1 1 0 0 Z " fill="#AEDAEF" transform="translate(77,42)"/>
<path d="M0 0 C2.625 0.375 2.625 0.375 5 1 C5.33 2.65 5.66 4.3 6 6 C4.35 6.33 2.7 6.66 1 7 C2.65 7 4.3 7 6 7 C5.67 7.66 5.34 8.32 5 9 C3.00045254 9.04254356 0.99958364 9.04080783 -1 9 C-2 8 -2 8 -2.1875 5.0625 C-2 2 -2 2 0 0 Z " fill="#61A4D2" transform="translate(399,120)"/>
<path d="M0 0 C2.625 0.375 2.625 0.375 5 1 C5.33 2.65 5.66 4.3 6 6 C4.35 6.33 2.7 6.66 1 7 C2.65 7 4.3 7 6 7 C5.67 7.66 5.34 8.32 5 9 C3.00045254 9.04254356 0.99958364 9.04080783 -1 9 C-2 8 -2 8 -2.1875 5.0625 C-2 2 -2 2 0 0 Z " fill="#61A4D3" transform="translate(353,120)"/>
<path d="M0 0 C2.93453261 0.36681658 3.86437246 0.86437246 6 3 C6 3.99 6 4.98 6 6 C4.02 6 2.04 6 0 6 C0 6.66 0 7.32 0 8 C1.65 7.67 3.3 7.34 5 7 C5 7.66 5 8.32 5 9 C2.125 9.125 2.125 9.125 -1 9 C-1.66 8.34 -2.32 7.68 -3 7 C-2.67028521 3.70285207 -2.3773161 2.3773161 0 0 Z " fill="#65A6D3" transform="translate(304,120)"/>
<path d="M0 0 C2.625 0.375 2.625 0.375 5 1 C5.33 2.65 5.66 4.3 6 6 C4.35 6.33 2.7 6.66 1 7 C2.65 7 4.3 7 6 7 C5.67 7.66 5.34 8.32 5 9 C3.00045254 9.04254356 0.99958364 9.04080783 -1 9 C-2 8 -2 8 -2.1875 5.0625 C-2 2 -2 2 0 0 Z " fill="#60A4D2" transform="translate(367,120)"/>
<path d="M0 0 C0 0.66 0 1.32 0 2 C-0.99 2.33 -1.98 2.66 -3 3 C-3.33 3.66 -3.66 4.32 -4 5 C-2.68 5 -1.36 5 0 5 C0 5.66 0 6.32 0 7 C-1.32 7 -2.64 7 -4 7 C-4 10.63 -4 14.26 -4 18 C-4.66 18 -5.32 18 -6 18 C-6 14.37 -6 10.74 -6 7 C-6.66 7 -7.32 7 -8 7 C-8 6.34 -8 5.68 -8 5 C-7.34 5 -6.68 5 -6 5 C-6 3.68 -6 2.36 -6 1 C-4 0 -4 0 0 0 Z " fill="#78797C" transform="translate(146,77)"/>
<path d="M0 0 C0 0.99 0 1.98 0 3 C-2.64 2.67 -5.28 2.34 -8 2 C-8.16681109 4.91652174 -8.16681109 4.91652174 -8 8 C-7.34 8.66 -6.68 9.32 -6 10 C-2.90073181 9.67801034 -2.90073181 9.67801034 0 9 C-0.33 9.99 -0.66 10.98 -1 12 C-7.3833448 12.48176187 -7.3833448 12.48176187 -10 10.4375 C-11.43135511 6.94857191 -10.933966 4.60244028 -10 1 C-6.1496895 -1.56687367 -4.41430237 -0.83288724 0 0 Z " fill="#7E7E81" transform="translate(285,83)"/>
<path d="M0 0 C1.32 0.33 2.64 0.66 4 1 C6.18703385 0.62092718 6.18703385 0.62092718 8 0 C8 0.99 8 1.98 8 3 C7.360625 3.165 6.72125 3.33 6.0625 3.5 C3.83880759 4.781786 3.83880759 4.781786 3.51171875 6.9140625 C3.2724022 8.93575155 3.13106972 10.96841939 3 13 C2.01 13 1.02 13 0 13 C0 8.71 0 4.42 0 0 Z " fill="#99999C" transform="translate(163,82)"/>
<path d="M0 0 C4.875 0.875 4.875 0.875 6 2 C6.04092937 4.33297433 6.04241723 6.66705225 6 9 C3.69 9 1.38 9 -1 9 C-1.5625 7.0625 -1.5625 7.0625 -2 5 C-1 4 -1 4 1.5625 3.9375 C2.7690625 3.9684375 2.7690625 3.9684375 4 4 C4 3.34 4 2.68 4 2 C2.35 2 0.7 2 -1 2 C-0.67 1.34 -0.34 0.68 0 0 Z " fill="#5DA2D1" transform="translate(171,120)"/>
<path d="M0 0 C2.625 0.375 2.625 0.375 5 1 C5.33 2.65 5.66 4.3 6 6 C4.02 6 2.04 6 0 6 C0 6.66 0 7.32 0 8 C1.65 7.67 3.3 7.34 5 7 C5 7.66 5 8.32 5 9 C3.00045254 9.04254356 0.99958364 9.04080783 -1 9 C-2 8 -2 8 -2.1875 5.0625 C-2 2 -2 2 0 0 Z " fill="#61A4D2" transform="translate(225,120)"/>
<path d="M0 0 C-0.45375 0.391875 -0.9075 0.78375 -1.375 1.1875 C-3.16418199 2.95758994 -3.16418199 2.95758994 -3.9375 5.5625 C-5 8 -5 8 -9 10 C-9 7.03 -9 4.06 -9 1 C-5.57367167 -0.61798838 -3.61944899 -1.34053666 0 0 Z " fill="#A784B7" transform="translate(61,62)"/>
<path d="M0 0 C4.875 0.875 4.875 0.875 6 2 C6.04092937 4.33297433 6.04241723 6.66705225 6 9 C3.69 9 1.38 9 -1 9 C-1.33 7.68 -1.66 6.36 -2 5 C-0.02 4.34 1.96 3.68 4 3 C2.35 2.67 0.7 2.34 -1 2 C-0.67 1.34 -0.34 0.68 0 0 Z " fill="#5DA2D1" transform="translate(287,120)"/>
<path d="M0 0 C2.5 0.125 2.5 0.125 3.5 1.125 C3.21269945 3.46444736 2.88063221 5.7989143 2.5 8.125 C0.83388095 8.167721 -0.83382885 8.16563832 -2.5 8.125 C-3.5 7.125 -3.5 7.125 -3.625 4.125 C-3.46033403 0.1730167 -3.46033403 0.1730167 0 0 Z " fill="#F6F9FC" transform="translate(192.5,54.875)"/>
<path d="M0 0 C2.97 0.495 2.97 0.495 6 1 C6 3.64 6 6.28 6 9 C3.69 9 1.38 9 -1 9 C-1 7.35 -1 5.7 -1 4 C0.65 3.67 2.3 3.34 4 3 C2.35 2.67 0.7 2.34 -1 2 C-0.67 1.34 -0.34 0.68 0 0 Z " fill="#5EA2D2" transform="translate(208,120)"/>
<path d="M0 0 C0.66 0 1.32 0 2 0 C2 0.99 2 1.98 2 3 C3.32 3 4.64 3 6 3 C6 3.66 6 4.32 6 5 C4.68 5 3.36 5 2 5 C2 7.97 2 10.94 2 14 C3.32 14 4.64 14 6 14 C6 14.66 6 15.32 6 16 C4.33388095 16.042721 2.66617115 16.04063832 1 16 C0 15 0 15 -0.09765625 12.71484375 C-0.08025391 11.34005859 -0.08025391 11.34005859 -0.0625 9.9375 C-0.05347656 9.01839844 -0.04445313 8.09929687 -0.03515625 7.15234375 C-0.02355469 6.44207031 -0.01195312 5.73179688 0 5 C-0.66 4.67 -1.32 4.34 -2 4 C-1.34 4 -0.68 4 0 4 C0 2.68 0 1.36 0 0 Z " fill="#8A8B8D" transform="translate(387,79)"/>
<path d="M0 0 C1.2065625 0.0309375 1.2065625 0.0309375 2.4375 0.0625 C2.4375 0.7225 2.4375 1.3825 2.4375 2.0625 C1.1175 2.0625 -0.2025 2.0625 -1.5625 2.0625 C-1.5625 3.3825 -1.5625 4.7025 -1.5625 6.0625 C0.0875 6.3925 1.7375 6.7225 3.4375 7.0625 C1.4575 8.0525 1.4575 8.0525 -0.5625 9.0625 C-0.5625 10.3825 -0.5625 11.7025 -0.5625 13.0625 C0.0975 13.7225 0.7575 14.3825 1.4375 15.0625 C-3.4375 14.1875 -3.4375 14.1875 -4.5625 13.0625 C-4.60313832 11.39632885 -4.605221 9.72861905 -4.5625 8.0625 C-3.9025 8.0625 -3.2425 8.0625 -2.5625 8.0625 C-2.8409375 6.3609375 -2.8409375 6.3609375 -3.125 4.625 C-3.3415625 2.8615625 -3.3415625 2.8615625 -3.5625 1.0625 C-2.5625 0.0625 -2.5625 0.0625 0 0 Z " fill="#838386" transform="translate(313.5625,79.9375)"/>
<path d="M0 0 C1.66611905 -0.042721 3.33382885 -0.04063832 5 0 C6 1 6 1 6.09765625 2.84765625 C6.06510417 4.8984375 6.03255208 6.94921875 6 9 C3.69 9 1.38 9 -1 9 C-0.67 7.35 -0.34 5.7 0 4 C1.32 3.67 2.64 3.34 4 3 C2.68 2.67 1.36 2.34 0 2 C0 1.34 0 0.68 0 0 Z " fill="#61A4D2" transform="translate(382,120)"/>
<path d="M0 0 C0.99 0 1.98 0 3 0 C4.03115279 3.26913624 3.9638984 5.86041348 3.5625 9.25 C3.46066406 10.14203125 3.35882813 11.0340625 3.25390625 11.953125 C3.12822266 12.96632813 3.12822266 12.96632813 3 14 C2.01 14 1.02 14 0 14 C0 9.38 0 4.76 0 0 Z " fill="#0F75BC" transform="translate(294,52)"/>
<path d="M0 0 C5.44736842 0.48421053 5.44736842 0.48421053 7.875 2.75 C9.18152386 5.36304771 9.24038873 7.11533524 9 10 C7.66666667 10 6.33333333 10 5 10 C4.67 8.35 4.34 6.7 4 5 C2.68 4.67 1.36 4.34 0 4 C0 2.68 0 1.36 0 0 Z " fill="#3189C5" transform="translate(191,51)"/>
<path d="M0 0 C1.423125 0.37125 1.423125 0.37125 2.875 0.75 C3.205 1.41 3.535 2.07 3.875 2.75 C2.740625 2.729375 1.60625 2.70875 0.4375 2.6875 C-2.94075674 2.33422523 -2.94075674 2.33422523 -4.125 3.75 C-4.16563832 5.41617115 -4.167721 7.08388095 -4.125 8.75 C-2.9803125 8.9665625 -2.9803125 8.9665625 -1.8125 9.1875 C0.875 9.75 0.875 9.75 3.875 10.75 C2.875 11.75 2.875 11.75 -0.5 12 C-4.125 11.75 -4.125 11.75 -6.125 10.6875 C-7.75878851 7.52203476 -6.97767564 5.09979714 -6.125 1.75 C-3.125 -0.25 -3.125 -0.25 0 0 Z " fill="#398DC7" transform="translate(145.125,117.25)"/>
<path d="M0 0 C0.66 0 1.32 0 2 0 C2 2.64 2 5.28 2 8 C4.97 8 7.94 8 11 8 C11 8.33 11 8.66 11 9 C8.03 9 5.06 9 2 9 C2 11.64 2 14.28 2 17 C1.34 17 0.68 17 0 17 C0 11.39 0 5.78 0 0 Z " fill="#77787A" transform="translate(333,78)"/>
<path d="M0 0 C0.78375 0.04125 1.5675 0.0825 2.375 0.125 C2.375 2.125 2.375 2.125 0.375 4.25 C-0.285 4.86875 -0.945 5.4875 -1.625 6.125 C-0.305 6.455 1.015 6.785 2.375 7.125 C2.375 7.785 2.375 8.445 2.375 9.125 C0 9.25 0 9.25 -2.625 9.125 C-4.625 7.125 -4.625 7.125 -4.875 4.625 C-4.51649553 1.03995533 -3.59522993 0.17120143 0 0 Z " fill="#1F7EC0" transform="translate(206.625,56.875)"/>
<path d="M0 0 C0.99 0 1.98 0 3 0 C3 4.62 3 9.24 3 14 C2.01 14 1.02 14 0 14 C0 9.38 0 4.76 0 0 Z " fill="#0E74BC" transform="translate(271,52)"/>
<path d="M0 0 C2 2 2 2 2 6 C-3.75 7.125 -3.75 7.125 -6 6 C-5.67 4.35 -5.34 2.7 -5 1 C-2.625 0.375 -2.625 0.375 0 0 Z " fill="#E9F2F8" transform="translate(349,121)"/>
<path d="M0 0 C3.08089673 2.77280706 4.68775452 5.06326356 6 9 C3.36 8.67 0.72 8.34 -2 8 C-1.125 2.25 -1.125 2.25 0 0 Z " fill="#2984C3" transform="translate(110,49)"/>
<path d="M0 0 C1 1 1 1 1.0625 4.5625 C1.041875 5.696875 1.02125 6.83125 1 8 C0.34 8 -0.32 8 -1 8 C-1 5.69 -1 3.38 -1 1 C-1.99 1.33 -2.98 1.66 -4 2 C-4.33 3.98 -4.66 5.96 -5 8 C-5.66 8 -6.32 8 -7 8 C-7 5.36 -7 2.72 -7 0 C-3.86350275 -1.04549908 -3.0051095 -1.00170317 0 0 Z " fill="#4393CA" transform="translate(253,121)"/>
<path d="M0 0 C1.093125 0.226875 2.18625 0.45375 3.3125 0.6875 C-1.3125 5.5625 -1.3125 5.5625 -4.6875 6.6875 C-5.3475 5.3675 -6.0075 4.0475 -6.6875 2.6875 C-4.58035839 -0.41123767 -3.86755884 -0.32775922 0 0 Z " fill="#FAAE48" transform="translate(86.6875,95.3125)"/>
<path d="M0 0 C3.45457866 0.40169519 4.49290349 1.71149673 6.6875 4.3125 C5.6975 5.7975 5.6975 5.7975 4.6875 7.3125 C1.32158134 5.86996343 -0.82297079 3.97985273 -3.3125 1.3125 C-2.3125 0.3125 -2.3125 0.3125 0 0 Z " fill="#FBAF49" transform="translate(70.3125,94.6875)"/>
<path d="M0 0 C0.66 0.33 1.32 0.66 2 1 C2 1.66 2 2.32 2 3 C1.07767578 2.93039063 1.07767578 2.93039063 0.13671875 2.859375 C-2.29346984 2.75084983 -4.58227061 2.72036938 -7 3 C-9.04029596 4.69164222 -9.04029596 4.69164222 -10 7 C-10.66 7.99 -11.32 8.98 -12 10 C-12.31424507 6.54330418 -12.37956836 4.60098323 -10.5 1.625 C-6.82376959 -0.76454977 -4.34504114 -0.35040654 0 0 Z " fill="#838387" transform="translate(193,78)"/>
<path d="M0 0 C1.85776765 3.13498292 2.20140476 5.37471432 2 9 C0.35 9.33 -1.3 9.66 -3 10 C-3.36923077 3.47692308 -3.36923077 3.47692308 -1.5 1.0625 C-1.005 0.711875 -0.51 0.36125 0 0 Z " fill="#99CC55" transform="translate(103,75)"/>
<path d="M0 0 C0.33 0.99 0.66 1.98 1 3 C-2.3 3 -5.6 3 -9 3 C-8.67 3.66 -8.34 4.32 -8 5 C-5.36 5 -2.72 5 0 5 C-0.33 5.99 -0.66 6.98 -1 8 C-2.27875 8.061875 -3.5575 8.12375 -4.875 8.1875 C-5.59429687 8.22230469 -6.31359375 8.25710937 -7.0546875 8.29296875 C-7.69664062 8.19628906 -8.33859375 8.09960938 -9 8 C-9.66 7.01 -10.32 6.02 -11 5 C-10.67 4.01 -10.34 3.02 -10 2 C-6.7 2 -3.4 2 0 2 C0 1.34 0 0.68 0 0 Z " fill="#97979A" transform="translate(362,87)"/>
<path d="M0 0 C0.66 0 1.32 0 2 0 C2 4.29 2 8.58 2 13 C1.01 13 0.02 13 -1 13 C-1.02686553 11.02090602 -1.04633375 9.04171029 -1.0625 7.0625 C-1.07410156 5.96035156 -1.08570313 4.85820313 -1.09765625 3.72265625 C-1 1 -1 1 0 0 Z " fill="#9B9B9E" transform="translate(269,82)"/>
<path d="M0 0 C2.97 0.495 2.97 0.495 6 1 C6.33 2.98 6.66 4.96 7 7 C1.25 5.125 1.25 5.125 -1 4 C-0.67 2.68 -0.34 1.36 0 0 Z " fill="#E6574A" transform="translate(57,88)"/>
<path d="M0 0 C0.66 0 1.32 0 2 0 C1.73958333 2.01822917 1.47916667 4.03645833 1.21875 6.0546875 C0.9627515 8.00498344 0.9627515 8.00498344 1 10 C2.65 10 4.3 10 6 10 C6 10.99 6 11.98 6 13 C3.125 12.6875 3.125 12.6875 0 12 C-2.44897847 8.32653229 -2.31537716 6.33643601 -2 2 C-1.34 1.34 -0.68 0.68 0 0 Z " fill="#909092" transform="translate(231,83)"/>
<path d="M0 0 C4 2 4 2 4.8125 3.875 C5.01502672 6.17030283 4.70156953 7.81733924 4 10 C2.68 9.67 1.36 9.34 0 9 C0 6.03 0 3.06 0 0 Z " fill="#E7584B" transform="translate(52,75)"/>
<path d="M0 0 C5.75 1.875 5.75 1.875 8 3 C8 4.32 8 5.64 8 7 C5.6875 7.25 5.6875 7.25 3 7 C1.1875 5.1875 1.1875 5.1875 0 3 C0 2.01 0 1.02 0 0 Z " fill="#2782C2" transform="translate(92,52)"/>
<path d="M0 0 C2.64 1.65 5.28 3.3 8 5 C6 7 6 7 3.5625 7.3125 C0.60720543 6.95209822 -0.18887927 6.28773145 -2 4 C-1.34 2.68 -0.68 1.36 0 0 Z " fill="#5DB6E0" transform="translate(82,45)"/>
<path d="M0 0 C0 0.99 0 1.98 0 3 C-3.33333333 6 -3.33333333 6 -6 6 C-6 6.66 -6 7.32 -6 8 C-3.69 8 -1.38 8 1 8 C1 8.33 1 8.66 1 9 C-2.3 9 -5.6 9 -9 9 C-9.33 9.66 -9.66 10.32 -10 11 C-9.69593558 7.75480334 -9.43719323 6.38099448 -6.93359375 4.19921875 C-6.10988281 3.70035156 -5.28617188 3.20148438 -4.4375 2.6875 C-3.61121094 2.17574219 -2.78492188 1.66398437 -1.93359375 1.13671875 C-1.29550781 0.76160156 -0.65742187 0.38648437 0 0 Z " fill="#FCEEED" transform="translate(49,76)"/>
<path d="M0 0 C2.31 0.66 4.62 1.32 7 2 C6.67 4.31 6.34 6.62 6 9 C5.34 9 4.68 9 4 9 C0 2.25 0 2.25 0 0 Z " fill="#E75B4F" transform="translate(41,89)"/>
<path d="M0 0 C2.475 0.495 2.475 0.495 5 1 C4.67 3.97 4.34 6.94 4 10 C2 8.9375 2 8.9375 0 7 C-0.25 3.3125 -0.25 3.3125 0 0 Z " fill="#2280C1" transform="translate(100,62)"/>
<path d="M0 0 C0.6875 1.8125 0.6875 1.8125 1 4 C-0.5342548 6.18025682 -1.64333489 6.88790525 -4.1875 7.6875 C-4.785625 7.790625 -5.38375 7.89375 -6 8 C-6.33 6.68 -6.66 5.36 -7 4 C-4.69 2.68 -2.38 1.36 0 0 Z " fill="#A683B6" transform="translate(63,52)"/>
<path d="M0 0 C2.3125 0.1875 2.3125 0.1875 4 1 C4 1.99 4 2.98 4 4 C1 6 1 6 -2.1875 5.625 C-3.115625 5.41875 -4.04375 5.2125 -5 5 C-2.75 2.4375 -2.75 2.4375 0 0 Z " fill="#59B4DF" transform="translate(72,46)"/>
<path d="M0 0 C3.3 0 6.6 0 10 0 C8.02 2.97 8.02 2.97 6 6 C2.26360784 4.75453595 1.81243487 3.36595047 0 0 Z " fill="#5BB5E0" transform="translate(73,33)"/>
<path d="M0 0 C1.68762851 1.6454378 3.3540349 3.31288577 5 5 C5 5.33 5 5.66 5 6 C1.7 6 -1.6 6 -5 6 C-3.35 4.02 -1.7 2.04 0 0 Z " fill="#FAAB41" transform="translate(78,108)"/>
<path d="M0 0 C1.4540625 0.0309375 1.4540625 0.0309375 2.9375 0.0625 C1.0625 5.8125 1.0625 5.8125 -0.0625 8.0625 C-0.7225 8.0625 -1.3825 8.0625 -2.0625 8.0625 C-2.7225 5.7525 -3.3825 3.4425 -4.0625 1.0625 C-3.0625 0.0625 -3.0625 0.0625 0 0 Z " fill="#92C949" transform="translate(112.0625,89.9375)"/>
<path d="M0 0 C0 1.32 0 2.64 0 4 C-5.75 7 -5.75 7 -8 7 C-7.39816251 4.97954558 -6.72693904 2.97888961 -6 1 C-4 0 -4 0 0 0 Z " fill="#92C949" transform="translate(100,88)"/>
<path d="M0 0 C1.5 1.25 1.5 1.25 3 3 C3 4.32 3 5.64 3 7 C0.69 7.33 -1.62 7.66 -4 8 C-2.87548273 5.0280615 -1.77706209 2.66559313 0 0 Z " fill="#A986B8" transform="translate(45,50)"/>
<path d="M0 0 C0.99 0.33 1.98 0.66 3 1 C1.55922954 4.36179774 -0.24750021 6.59156268 -3 9 C-3.66 9 -4.32 9 -5 9 C-3.90931332 5.22454612 -3.0916909 2.52956528 0 0 Z " fill="#FBB14F" transform="translate(74,105)"/>
<path d="M0 0 C0.33 0.66 0.66 1.32 1 2 C2.65 2 4.3 2 6 2 C3 4 3 4 1 4 C0.34 6.97 -0.32 9.94 -1 13 C-1.33 12.34 -1.66 11.68 -2 11 C-2.66 10.67 -3.32 10.34 -4 10 C-3.34 10 -2.68 10 -2 10 C-1.67 7.69 -1.34 5.38 -1 3 C-1.66 2.67 -2.32 2.34 -3 2 C-2.01 1.34 -1.02 0.68 0 0 Z " fill="#F9DAD7" transform="translate(49,88)"/>
<path d="M0 0 C3.82524236 1.450954 5.19090966 3.38181932 7 7 C7 7.66 7 8.32 7 9 C6.01 9 5.02 9 4 9 C1.25 6.1875 1.25 6.1875 -1 3 C-0.67 2.01 -0.34 1.02 0 0 Z " fill="#FAAF4A" transform="translate(81,105)"/>
<path d="M0 0 C3.3 0 6.6 0 10 0 C9.67 0.99 9.34 1.98 9 3 C4.545 3.495 4.545 3.495 0 4 C0 2.68 0 1.36 0 0 Z " fill="#98CC53" transform="translate(107,85)"/>
<path d="M0 0 C2.31 0 4.62 0 7 0 C6.360625 0.309375 5.72125 0.61875 5.0625 0.9375 C1.90231425 4.09768575 2.18099207 7.68333908 2 12 C1.34 12 0.68 12 0 12 C0 8.04 0 4.08 0 0 Z " fill="#858588" transform="translate(245,83)"/>
<path d="M0 0 C0.66 0 1.32 0 2 0 C1.34 3.3 0.68 6.6 0 10 C-1.32 9.67 -2.64 9.34 -4 9 C-2.94124926 5.59687262 -1.99097846 2.98646769 0 0 Z " fill="#2984C3" transform="translate(107,46)"/>
<path d="M0 0 C0.66 0 1.32 0 2 0 C2 0.66 2 1.32 2 2 C2.66 2 3.32 2 4 2 C4 2.66 4 3.32 4 4 C3.34 4 2.68 4 2 4 C2 5.98 2 7.96 2 10 C2.66 10.33 3.32 10.66 4 11 C2.68 11 1.36 11 0 11 C-0.19491452 9.54263913 -0.38069358 8.08405407 -0.5625 6.625 C-0.66691406 5.81289062 -0.77132813 5.00078125 -0.87890625 4.1640625 C-1 2 -1 2 0 0 Z " fill="#4594CB" transform="translate(296,118)"/>
<path d="M0 0 C0.66 0 1.32 0 2 0 C2 0.66 2 1.32 2 2 C2.66 2 3.32 2 4 2 C4 2.66 4 3.32 4 4 C3.34 4 2.68 4 2 4 C2 5.98 2 7.96 2 10 C2.66 10.33 3.32 10.66 4 11 C2.68 11 1.36 11 0 11 C-0.19491452 9.54263913 -0.38069358 8.08405407 -0.5625 6.625 C-0.66691406 5.81289062 -0.77132812 5.00078125 -0.87890625 4.1640625 C-1 2 -1 2 0 0 Z " fill="#4594CA" transform="translate(217,118)"/>
<path d="M0 0 C1.4540625 0.0309375 1.4540625 0.0309375 2.9375 0.0625 C2.6075 1.3825 2.2775 2.7025 1.9375 4.0625 C0.2875 4.3925 -1.3625 4.7225 -3.0625 5.0625 C-3.625 3.125 -3.625 3.125 -4.0625 1.0625 C-3.0625 0.0625 -3.0625 0.0625 0 0 Z " fill="#F0F0F0" transform="translate(371.0625,88.9375)"/>
<path d="M0 0 C0.99 0 1.98 0 3 0 C3 3.3 3 6.6 3 10 C2.01 10 1.02 10 0 10 C0 6.7 0 3.4 0 0 Z " fill="#A1A1A3" transform="translate(262,85)"/>
<path d="M0 0 C0.99 0 1.98 0 3 0 C3 3.3 3 6.6 3 10 C2.01 10 1.02 10 0 10 C0 6.7 0 3.4 0 0 Z " fill="#A2A2A4" transform="translate(223,85)"/>
<path d="M0 0 C2.97 0 5.94 0 9 0 C9 1.32 9 2.64 9 4 C6.03 3.67 3.06 3.34 0 3 C0 2.01 0 1.02 0 0 Z " fill="#E85F53" transform="translate(40,85)"/>
<path d="M0 0 C5.53846154 -0.36923077 5.53846154 -0.36923077 7.875 1.5 C8.24625 1.995 8.6175 2.49 9 3 C8 5 8 5 7 6 C4.66702567 6.04092937 2.33294775 6.04241723 0 6 C0 5.67 0 5.34 0 5 C1.98 5 3.96 5 6 5 C5.67 4.34 5.34 3.68 5 3 C3.02 3 1.04 3 -1 3 C-0.67 2.01 -0.34 1.02 0 0 Z " fill="#969698" transform="translate(367,82)"/>
<path d="M0 0 C0.99 0 1.98 0 3 0 C4.38671875 1.53125 4.38671875 1.53125 5.6875 3.5 C6.12449219 4.1496875 6.56148438 4.799375 7.01171875 5.46875 C7.33785156 5.9740625 7.66398437 6.479375 8 7 C7.01 7.66 6.02 8.32 5 9 C4.16094435 7.87926138 3.32892169 6.75325453 2.5 5.625 C2.0359375 4.99851562 1.571875 4.37203125 1.09375 3.7265625 C0 2 0 2 0 0 Z " fill="#62B8E1" transform="translate(69,34)"/>
<path d="M0 0 C1.65 0.33 3.3 0.66 5 1 C4.67 2.65 4.34 4.3 4 6 C2.0625 5.6875 2.0625 5.6875 0 5 C-0.33 4.01 -0.66 3.02 -1 2 C-0.67 1.34 -0.34 0.68 0 0 Z " fill="#F0F6FA" transform="translate(192,122)"/>
<path d="M0 0 C4.95 0.99 4.95 0.99 10 2 C10 2.66 10 3.32 10 4 C6.7 4 3.4 4 0 4 C0 2.68 0 1.36 0 0 Z " fill="#2280C1" transform="translate(107,58)"/>
<path d="M0 0 C3.96 1.32 7.92 2.64 12 4 C10.68 5.32 9.36 6.64 8 8 C7.01 7.67 6.02 7.34 5 7 C5.33 6.34 5.66 5.68 6 5 C4.02 4.01 2.04 3.02 0 2 C0 1.34 0 0.68 0 0 Z " fill="#F4EFF6" transform="translate(53,46)"/>
<path d="M0 0 C1.32 0 2.64 0 4 0 C4.66 2.97 5.32 5.94 6 9 C3 8 3 8 1.3125 5.0625 C0 2 0 2 0 0 Z " fill="#94CA4D" transform="translate(103,92)"/>
<path d="M0 0 C-0.59927826 3.35595828 -1.84622436 5.37801226 -4 8 C-4.99 7.67 -5.98 7.34 -7 7 C-3.86206897 0 -3.86206897 0 0 0 Z " fill="#5BB4E0" transform="translate(87,34)"/>
<path d="M0 0 C0 2.64 0 5.28 0 8 C-0.33 8 -0.66 8 -1 8 C-1.33 6.02 -1.66 4.04 -2 2 C-2.99 2 -3.98 2 -5 2 C-5.33 3.98 -5.66 5.96 -6 8 C-6.33 8 -6.66 8 -7 8 C-7 5.36 -7 2.72 -7 0 C-4.3333581 -1.33332095 -2.83319697 -0.67102033 0 0 Z " fill="#2C86C4" transform="translate(264,121)"/>
<path d="M0 0 C0.66 0 1.32 0 2 0 C2 0.99 2 1.98 2 3 C2.66 3.33 3.32 3.66 4 4 C3.34 4 2.68 4 2 4 C2 5.98 2 7.96 2 10 C2.66 10.33 3.32 10.66 4 11 C2.68 10.67 1.36 10.34 0 10 C-1.125 2.25 -1.125 2.25 0 0 Z " fill="#3F91C9" transform="translate(391,118)"/>
<path d="M0 0 C1.32 0 2.64 0 4 0 C4 1.65 4 3.3 4 5 C2.68 5.33 1.36 5.66 0 6 C-0.38218767 4.34385343 -0.71395102 2.67542976 -1 1 C-0.67 0.67 -0.34 0.34 0 0 Z " fill="#F6FAFC" transform="translate(269,122)"/>
<path d="M0 0 C1.32 0 2.64 0 4 0 C4 1.65 4 3.3 4 5 C2.68 5.33 1.36 5.66 0 6 C-0.38218767 4.34385343 -0.71395102 2.67542976 -1 1 C-0.67 0.67 -0.34 0.34 0 0 Z " fill="#F3F8FB" transform="translate(182,122)"/>
<path d="M0 0 C2.31 0 4.62 0 7 0 C7 2.31 7 4.62 7 7 C6.01 7.33 5.02 7.66 4 8 C4.33 6.02 4.66 4.04 5 2 C3.35 2 1.7 2 0 2 C0 1.34 0 0.68 0 0 Z " fill="#78797B" transform="translate(189,86)"/>
<path d="M0 0 C0 0.66 0 1.32 0 2 C-0.99 2.33 -1.98 2.66 -3 3 C-3.33 3.66 -3.66 4.32 -4 5 C-2.68 5.33 -1.36 5.66 0 6 C-2.64 6.33 -5.28 6.66 -8 7 C-8 6.34 -8 5.68 -8 5 C-7.34 5 -6.68 5 -6 5 C-6 3.68 -6 2.36 -6 1 C-4 0 -4 0 0 0 Z " fill="#909193" transform="translate(146,77)"/>
<path d="M0 0 C3.2542015 2.83430453 4.5206753 4.68607774 5 9 C4.01 9.33 3.02 9.66 2 10 C1.01 7.03 0.02 4.06 -1 1 C-0.67 0.67 -0.34 0.34 0 0 Z " fill="#A784B7" transform="translate(48,46)"/>
<path d="M0 0 C0.66 0 1.32 0 2 0 C2.66 1.32 3.32 2.64 4 4 C5.32 2.68 6.64 1.36 8 0 C7.1875 3.4375 7.1875 3.4375 6 7 C5.01 7.33 4.02 7.66 3 8 C2.01 5.36 1.02 2.72 0 0 Z " fill="#358BC7" transform="translate(276,121)"/>
<path d="M0 0 C1.98 0.495 1.98 0.495 4 1 C3.67 2.65 3.34 4.3 3 6 C1.68 5.67 0.36 5.34 -1 5 C-0.67 3.35 -0.34 1.7 0 0 Z " fill="#FAFCFD" transform="translate(153,122)"/>
<path d="M0 0 C0.99 0 1.98 0 3 0 C2.44271087 3.34373475 1.64826111 6.03312999 0 9 C-0.66 9 -1.32 9 -2 9 C-1.125 2.25 -1.125 2.25 0 0 Z " fill="#E65245" transform="translate(50,92)"/>
<path d="M0 0 C0 1.32 0 2.64 0 4 C-2.97 4 -5.94 4 -9 4 C-9 3.34 -9 2.68 -9 2 C-2.25 0 -2.25 0 0 0 Z " fill="#A682B6" transform="translate(49,58)"/>
<path d="M0 0 C4.455 1.98 4.455 1.98 9 4 C7.1875 5.5625 7.1875 5.5625 5 7 C4.01 6.67 3.02 6.34 2 6 C0.8125 2.9375 0.8125 2.9375 0 0 Z " fill="#AC8BBB" transform="translate(52,47)"/>
<path d="M0 0 C0.33 0 0.66 0 1 0 C1.33 3.3 1.66 6.6 2 10 C0.35 9.01 -1.3 8.02 -3 7 C-2.38722388 4.03824877 -1.74627478 2.61941217 0 0 Z " fill="#64B9E1" transform="translate(87,38)"/>
<path d="M0 0 C2 3 2 3 1.625 6.1875 C1.41875 7.115625 1.2125 8.04375 1 9 C0.01 8.67 -0.98 8.34 -2 8 C-2 6.02 -2 4.04 -2 2 C-1.34 2 -0.68 2 0 2 C0 1.34 0 0.68 0 0 Z " fill="#E6F0F7" transform="translate(221,120)"/>
<path d="M0 0 C1.32 0 2.64 0 4 0 C3.67 1.65 3.34 3.3 3 5 C1.35 4.67 -0.3 4.34 -2 4 C-1.34 2.68 -0.68 1.36 0 0 Z " fill="#F5F5F5" transform="translate(313,88)"/>
<path d="M0 0 C0 0.99 0 1.98 0 3 C-2.64 2.67 -5.28 2.34 -8 2 C-8.33 2.66 -8.66 3.32 -9 4 C-9.33 3.01 -9.66 2.02 -10 1 C-6.1496895 -1.56687367 -4.41430237 -0.83288724 0 0 Z " fill="#8D8D8F" transform="translate(285,83)"/>
<path d="M0 0 C0 1.98 0 3.96 0 6 C-2.31 6 -4.62 6 -7 6 C-7 5.34 -7 4.68 -7 4 C-1.47058824 0 -1.47058824 0 0 0 Z " fill="#E96458" transform="translate(50,78)"/>
<path d="M0 0 C0.66 0 1.32 0 2 0 C1.67 2.97 1.34 5.94 1 9 C-0.32 7.35 -1.64 5.7 -3 4 C-1.625 2 -1.625 2 0 0 Z " fill="#FAAF4A" transform="translate(87,100)"/>
<path d="M0 0 C0.66 1.98 1.32 3.96 2 6 C-0.35171131 5.40138258 -2.6859378 4.73075648 -5 4 C-5.33 3.34 -5.66 2.68 -6 2 C-2.25 0 -2.25 0 0 0 Z " fill="#98CC55" transform="translate(102,93)"/>
<path d="M0 0 C0.639375 0.2475 1.27875 0.495 1.9375 0.75 C2.2675 1.74 2.5975 2.73 2.9375 3.75 C0.2975 3.75 -2.3425 3.75 -5.0625 3.75 C-4.7325 2.76 -4.4025 1.77 -4.0625 0.75 C-2.0625 -0.25 -2.0625 -0.25 0 0 Z " fill="#F6F6F7" transform="translate(206.0625,84.25)"/>
<path d="M0 0 C2.88437779 1.29299694 4.87219421 2.65941363 7 5 C4.69 5.33 2.38 5.66 0 6 C0 4.02 0 2.04 0 0 Z " fill="#99CD56" transform="translate(106,78)"/>
<path d="M0 0 C2.0625 1.75 2.0625 1.75 4 4 C3.9375 6.1875 3.9375 6.1875 3 8 C2.01 8.33 1.02 8.66 0 9 C0 6.03 0 3.06 0 0 Z " fill="#68BAE2" transform="translate(68,38)"/>
<path d="M0 0 C1.98 1.65 3.96 3.3 6 5 C5.67 5.99 5.34 6.98 5 8 C1.7 8 -1.6 8 -5 8 C-5 7.67 -5 7.34 -5 7 C-2.36 6.67 0.28 6.34 3 6 C2.2575 5.071875 2.2575 5.071875 1.5 4.125 C0 2 0 2 0 0 Z " fill="#FDEAD1" transform="translate(79,107)"/>
<path d="M0 0 C6.75 0.75 6.75 0.75 9 3 C8.625 5.625 8.625 5.625 8 8 C7.79375 7.401875 7.5875 6.80375 7.375 6.1875 C5.49073918 3.18981233 3.18867916 2.38638224 0 1 C0 0.67 0 0.34 0 0 Z " fill="#8C8C8F" transform="translate(151,82)"/>
<path d="M0 0 C1.65 0.33 3.3 0.66 5 1 C5.33 1.99 5.66 2.98 6 4 C3.69 4 1.38 4 -1 4 C-0.67 2.68 -0.34 1.36 0 0 Z " fill="#F9F9F9" transform="translate(354,84)"/>
<path d="M0 0 C0.66 0.33 1.32 0.66 2 1 C1.34 2.65 0.68 4.3 0 6 C-1.98 5.34 -3.96 4.68 -6 4 C-4.03617993 2.49440461 -2.21736634 1.10868317 0 0 Z " fill="#2482C2" transform="translate(102,48)"/>
<path d="M0 0 C1.4540625 0.0309375 1.4540625 0.0309375 2.9375 0.0625 C-1.8125 4.9375 -1.8125 4.9375 -4.0625 6.0625 C-4.105221 4.39638095 -4.10313832 2.72867115 -4.0625 1.0625 C-3.0625 0.0625 -3.0625 0.0625 0 0 Z " fill="#2481C2" transform="translate(110.0625,63.9375)"/>
<path d="M0 0 C0.99 0.33 1.98 0.66 3 1 C2.34 3.97 1.68 6.94 1 10 C0.67 10 0.34 10 0 10 C0 7.69 0 5.38 0 3 C-1.32 3.33 -2.64 3.66 -4 4 C-2.68 2.68 -1.36 1.36 0 0 Z " fill="#FCF9F1" transform="translate(89,97)"/>
<path d="M0 0 C2.475 0.99 2.475 0.99 5 2 C2.82575883 4.50037734 1.26954202 5.43628586 -2 6 C-1.34 4.02 -0.68 2.04 0 0 Z " fill="#E7574A" transform="translate(55,93)"/>
<path d="M0 0 C0.75 1.75 0.75 1.75 1 4 C-0.6875 6.3125 -0.6875 6.3125 -3 8 C-5.25 7.75 -5.25 7.75 -7 7 C-6 5 -6 5 -3.5 4.0625 C-2.675 3.711875 -1.85 3.36125 -1 3 C-0.67 2.01 -0.34 1.02 0 0 Z " fill="#A1A1A4" transform="translate(319,88)"/>
<path d="M0 0 C0.66 0.33 1.32 0.66 2 1 C1.25 5.75 1.25 5.75 -1 8 C-3.625 8.125 -3.625 8.125 -6 8 C-4.7934375 7.13375 -4.7934375 7.13375 -3.5625 6.25 C-1.02133261 4.01873107 -0.34879632 3.25543229 0 0 Z " fill="#7D7D80" transform="translate(240,87)"/>
<path d="M0 0 C0.99 0.66 1.98 1.32 3 2 C3 3.32 3 4.64 3 6 C0.03 6 -2.94 6 -6 6 C-6 5.67 -6 5.34 -6 5 C-3.69 5 -1.38 5 1 5 C0.34 3.68 -0.32 2.36 -1 1 C-0.67 0.67 -0.34 0.34 0 0 Z " fill="#7E7F82" transform="translate(359,83)"/>
<path d="M0 0 C1.32 0.33 2.64 0.66 4 1 C4 1.99 4 2.98 4 4 C2.02 4 0.04 4 -2 4 C-1.34 2.68 -0.68 1.36 0 0 Z " fill="#D7E8F3" transform="translate(330,54)"/>
<path d="M0 0 C0.33 0.66 0.66 1.32 1 2 C-1.97 2.66 -4.94 3.32 -8 4 C-8 3.01 -8 2.02 -8 1 C-5.29120665 -0.35439668 -2.99066732 -0.06501451 0 0 Z " fill="#E3EFF7" transform="translate(291,122)"/>
<path d="M0 0 C2.5 -0.375 2.5 -0.375 5 0 C5.66 0.99 6.32 1.98 7 3 C4 3 1 3 -2 3 C-1.34 2.01 -0.68 1.02 0 0 Z " fill="#8C8C8F" transform="translate(257,82)"/>
<path d="M0 0 C2.31 0 4.62 0 7 0 C7 1.65 7 3.3 7 5 C3.535 3.02 3.535 3.02 0 1 C0 0.67 0 0.34 0 0 Z " fill="#A47EB4" transform="translate(43,64)"/>
<path d="M0 0 C0.66 0.33 1.32 0.66 2 1 C2.625 3.5625 2.625 3.5625 3 6 C1.35 6 -0.3 6 -2 6 C-1.34 4.02 -0.68 2.04 0 0 Z " fill="#E9F2F8" transform="translate(242,52)"/>
<path d="M0 0 C3.41158256 1.13719419 4.11854601 2.04342944 6 5 C6 5.66 6 6.32 6 7 C4.02 7.99 4.02 7.99 2 9 C2.04125 8.2575 2.0825 7.515 2.125 6.75 C1.99601866 3.91241048 1.42948778 2.41226062 0 0 Z " fill="#EAF5FA" transform="translate(69,38)"/>
<path d="M0 0 C2.31 0.33 4.62 0.66 7 1 C6.01 1.66 5.02 2.32 4 3 C3.01 2.67 2.02 2.34 1 2 C0.67 3.32 0.34 4.64 0 6 C-0.99 5.34 -1.98 4.68 -3 4 C-2.34 4 -1.68 4 -1 4 C-0.67 2.68 -0.34 1.36 0 0 Z " fill="#D8EDF7" transform="translate(76,41)"/>
<path d="M0 0 C2.5625 0.25 2.5625 0.25 5 1 C5.33 1.66 5.66 2.32 6 3 C5.01 4.485 5.01 4.485 4 6 C3.67 5.01 3.34 4.02 3 3 C1.35 2.67 -0.3 2.34 -2 2 C-1.34 1.34 -0.68 0.68 0 0 Z " fill="#579ED0" transform="translate(153,120)"/>
<path d="M0 0 C1.65 0.99 3.3 1.98 5 3 C4.03114628 4.68496298 3.03013277 6.35178756 2 8 C1.67 8 1.34 8 1 8 C0.67 5.36 0.34 2.72 0 0 Z " fill="#FAA93D" transform="translate(68,100)"/>
<path d="M0 0 C2.64 0 5.28 0 8 0 C7.67 0.66 7.34 1.32 7 2 C4.67843403 2.40729228 2.3431213 2.74438677 0 3 C0 2.01 0 1.02 0 0 Z " fill="#2280C1" transform="translate(203,52)"/>
<path d="M0 0 C0 0.66 0 1.32 0 2 C-0.99 2.66 -1.98 3.32 -3 4 C-3.72965366 6.56282742 -3.72965366 6.56282742 -4 9 C-4.33 9 -4.66 9 -5 9 C-5 6.36 -5 3.72 -5 1 C-2 0 -2 0 0 0 Z " fill="#217FC0" transform="translate(206,120)"/>
<path d="M0 0 C0.99 0.66 1.98 1.32 3 2 C2.67 2.99 2.34 3.98 2 5 C0.68 4.67 -0.64 4.34 -2 4 C-1.34 2.68 -0.68 1.36 0 0 Z " fill="#FAAE48" transform="translate(78,100)"/>
<path d="M0 0 C0.99 0.33 1.98 0.66 3 1 C3.33 2.98 3.66 4.96 4 7 C3.01 7.33 2.02 7.66 1 8 C-0.35439668 5.29120665 -0.06501451 2.99066732 0 0 Z " fill="#9F9FA1" transform="translate(180,84)"/>
<path d="M0 0 C1.32 0 2.64 0 4 0 C4 1.32 4 2.64 4 4 C2.68 4 1.36 4 0 4 C-0.33 3.01 -0.66 2.02 -1 1 C-0.67 0.67 -0.34 0.34 0 0 Z " fill="#9BCE59" transform="translate(102,86)"/>
<path d="M0 0 C1.98 0.495 1.98 0.495 4 1 C3.319375 1.61875 3.319375 1.61875 2.625 2.25 C0.94049626 4.06408095 0.00734029 5.75285627 -1 8 C-1.125 2.25 -1.125 2.25 0 0 Z " fill="#C3ABCE" transform="translate(57,61)"/>
<path d="M0 0 C1.98 0 3.96 0 6 0 C5.67 0.99 5.34 1.98 5 3 C3.35 3 1.7 3 0 3 C0 2.01 0 1.02 0 0 Z " fill="#EEF5F9" transform="translate(281,60)"/>
<path d="M0 0 C1.65 0 3.3 0 5 0 C5 0.99 5 1.98 5 3 C3.02 3 1.04 3 -1 3 C-0.67 2.01 -0.34 1.02 0 0 Z " fill="#ECF4F9" transform="translate(206,60)"/>
</svg>
